solid OpenSCAD_Model
  facet normal -1 0 0
    outer loop
      vertex 111.5 7.5 3
      vertex 111.5 26.3125 6
      vertex 111.5 26.3125 3
    endloop
  endfacet
  facet normal -1 -0 0
    outer loop
      vertex 111.5 26.3125 6
      vertex 111.5 7.5 3
      vertex 111.5 7.5 6
    endloop
  endfacet
  facet normal 0 0 1
    outer loop
      vertex 135 26.3125 6
      vertex 133.584 16.875 6
      vertex 135 7.5 6
    endloop
  endfacet
  facet normal 0 0 1
    outer loop
      vertex 135 26.3125 6
      vertex 133.578 16.939 6
      vertex 133.584 16.875 6
    endloop
  endfacet
  facet normal 0 0 1
    outer loop
      vertex 135 26.3125 6
      vertex 133.564 17.0865 6
      vertex 133.578 16.939 6
    endloop
  endfacet
  facet normal 0 0 1
    outer loop
      vertex 135 26.3125 6
      vertex 133.521 17.2284 6
      vertex 133.564 17.0865 6
    endloop
  endfacet
  facet normal 0 0 1
    outer loop
      vertex 135 26.3125 6
      vertex 133.502 17.29 6
      vertex 133.521 17.2284 6
    endloop
  endfacet
  facet normal 0 0 1
    outer loop
      vertex 135 26.3125 6
      vertex 133.472 17.3467 6
      vertex 133.502 17.29 6
    endloop
  endfacet
  facet normal 0 0 1
    outer loop
      vertex 135 26.3125 6
      vertex 133.402 17.4774 6
      vertex 133.472 17.3467 6
    endloop
  endfacet
  facet normal 0 0 1
    outer loop
      vertex 135 26.3125 6
      vertex 133.308 17.592 6
      vertex 133.402 17.4774 6
    endloop
  endfacet
  facet normal 0 0 1
    outer loop
      vertex 135 26.3125 6
      vertex 133.267 17.6418 6
      vertex 133.308 17.592 6
    endloop
  endfacet
  facet normal 0 0 1
    outer loop
      vertex 135 26.3125 6
      vertex 133.217 17.6826 6
      vertex 133.267 17.6418 6
    endloop
  endfacet
  facet normal 0 0 1
    outer loop
      vertex 135 26.3125 6
      vertex 133.102 17.7766 6
      vertex 133.217 17.6826 6
    endloop
  endfacet
  facet normal 0 0 1
    outer loop
      vertex 135 26.3125 6
      vertex 132.972 17.8465 6
      vertex 133.102 17.7766 6
    endloop
  endfacet
  facet normal 0 0 1
    outer loop
      vertex 135 26.3125 6
      vertex 132.915 17.8768 6
      vertex 132.972 17.8465 6
    endloop
  endfacet
  facet normal 0 0 1
    outer loop
      vertex 135 26.3125 6
      vertex 132.853 17.8955 6
      vertex 132.915 17.8768 6
    endloop
  endfacet
  facet normal 0 0 1
    outer loop
      vertex 135 26.3125 6
      vertex 132.712 17.9385 6
      vertex 132.853 17.8955 6
    endloop
  endfacet
  facet normal 0 0 1
    outer loop
      vertex 135 26.3125 6
      vertex 132.564 17.9531 6
      vertex 132.712 17.9385 6
    endloop
  endfacet
  facet normal 0 0 1
    outer loop
      vertex 135 26.3125 6
      vertex 132.5 17.9594 6
      vertex 132.564 17.9531 6
    endloop
  endfacet
  facet normal 0 0 1
    outer loop
      vertex 135 26.3125 6
      vertex 132.436 17.9531 6
      vertex 132.5 17.9594 6
    endloop
  endfacet
  facet normal 0 0 1
    outer loop
      vertex 135 26.3125 6
      vertex 132.288 17.9385 6
      vertex 132.436 17.9531 6
    endloop
  endfacet
  facet normal 0 0 1
    outer loop
      vertex 135 26.3125 6
      vertex 132.147 17.8955 6
      vertex 132.288 17.9385 6
    endloop
  endfacet
  facet normal 0 0 1
    outer loop
      vertex 135 26.3125 6
      vertex 132.085 17.8768 6
      vertex 132.147 17.8955 6
    endloop
  endfacet
  facet normal 0 0 1
    outer loop
      vertex 135 26.3125 6
      vertex 132.028 17.8465 6
      vertex 132.085 17.8768 6
    endloop
  endfacet
  facet normal 0 0 1
    outer loop
      vertex 135 26.3125 6
      vertex 131.898 17.7766 6
      vertex 132.028 17.8465 6
    endloop
  endfacet
  facet normal 0 0 1
    outer loop
      vertex 135 26.3125 6
      vertex 131.783 17.6826 6
      vertex 131.898 17.7766 6
    endloop
  endfacet
  facet normal 0 0 1
    outer loop
      vertex 135 26.3125 6
      vertex 131.733 17.6418 6
      vertex 131.783 17.6826 6
    endloop
  endfacet
  facet normal -0 0 1
    outer loop
      vertex 111.5 26.3125 6
      vertex 131.733 17.6418 6
      vertex 135 26.3125 6
    endloop
  endfacet
  facet normal 0 -0 1
    outer loop
      vertex 114.267 17.6418 6
      vertex 131.733 17.6418 6
      vertex 111.5 26.3125 6
    endloop
  endfacet
  facet normal 0 0 1
    outer loop
      vertex 131.733 17.6418 6
      vertex 114.267 17.6418 6
      vertex 131.692 17.592 6
    endloop
  endfacet
  facet normal 0 0 1
    outer loop
      vertex 131.692 17.592 6
      vertex 114.267 17.6418 6
      vertex 131.598 17.4774 6
    endloop
  endfacet
  facet normal 0 0 1
    outer loop
      vertex 114.578 16.939 6
      vertex 131.422 16.939 6
      vertex 131.436 17.0865 6
    endloop
  endfacet
  facet normal 0 0 1
    outer loop
      vertex 131.422 16.939 6
      vertex 114.584 16.875 6
      vertex 131.416 16.875 6
    endloop
  endfacet
  facet normal 0 0 1
    outer loop
      vertex 114.564 17.0865 6
      vertex 131.436 17.0865 6
      vertex 131.479 17.2284 6
    endloop
  endfacet
  facet normal 0 0 1
    outer loop
      vertex 114.521 17.2284 6
      vertex 131.479 17.2284 6
      vertex 131.498 17.29 6
    endloop
  endfacet
  facet normal -0 -0 1
    outer loop
      vertex 114.308 17.592 6
      vertex 131.598 17.4774 6
      vertex 114.267 17.6418 6
    endloop
  endfacet
  facet normal 0 0 1
    outer loop
      vertex 131.422 16.939 6
      vertex 114.578 16.939 6
      vertex 114.584 16.875 6
    endloop
  endfacet
  facet normal 0 0 1
    outer loop
      vertex 131.436 17.0865 6
      vertex 114.564 17.0865 6
      vertex 114.578 16.939 6
    endloop
  endfacet
  facet normal 0 0 1
    outer loop
      vertex 131.479 17.2284 6
      vertex 114.521 17.2284 6
      vertex 114.564 17.0865 6
    endloop
  endfacet
  facet normal 0 0 1
    outer loop
      vertex 131.498 17.29 6
      vertex 114.502 17.29 6
      vertex 114.521 17.2284 6
    endloop
  endfacet
  facet normal 0 0 1
    outer loop
      vertex 131.498 17.29 6
      vertex 114.472 17.3467 6
      vertex 114.502 17.29 6
    endloop
  endfacet
  facet normal 0 0 1
    outer loop
      vertex 131.528 17.3467 6
      vertex 114.472 17.3467 6
      vertex 131.498 17.29 6
    endloop
  endfacet
  facet normal 0 -0 1
    outer loop
      vertex 114.472 17.3467 6
      vertex 131.528 17.3467 6
      vertex 114.402 17.4774 6
    endloop
  endfacet
  facet normal 0 0 1
    outer loop
      vertex 131.598 17.4774 6
      vertex 114.402 17.4774 6
      vertex 131.528 17.3467 6
    endloop
  endfacet
  facet normal 0 -0 1
    outer loop
      vertex 114.402 17.4774 6
      vertex 131.598 17.4774 6
      vertex 114.308 17.592 6
    endloop
  endfacet
  facet normal 0 0 1
    outer loop
      vertex 114.267 17.6418 6
      vertex 111.5 26.3125 6
      vertex 114.217 17.6826 6
    endloop
  endfacet
  facet normal 0 0 1
    outer loop
      vertex 114.217 17.6826 6
      vertex 111.5 26.3125 6
      vertex 114.102 17.7766 6
    endloop
  endfacet
  facet normal 0 0 1
    outer loop
      vertex 114.102 17.7766 6
      vertex 111.5 26.3125 6
      vertex 113.972 17.8465 6
    endloop
  endfacet
  facet normal 0 0 1
    outer loop
      vertex 113.972 17.8465 6
      vertex 111.5 26.3125 6
      vertex 113.915 17.8768 6
    endloop
  endfacet
  facet normal 0 0 1
    outer loop
      vertex 113.915 17.8768 6
      vertex 111.5 26.3125 6
      vertex 113.853 17.8955 6
    endloop
  endfacet
  facet normal 0 0 1
    outer loop
      vertex 113.853 17.8955 6
      vertex 111.5 26.3125 6
      vertex 113.712 17.9385 6
    endloop
  endfacet
  facet normal 0 0 1
    outer loop
      vertex 113.712 17.9385 6
      vertex 111.5 26.3125 6
      vertex 113.564 17.9531 6
    endloop
  endfacet
  facet normal 0 0 1
    outer loop
      vertex 113.564 17.9531 6
      vertex 111.5 26.3125 6
      vertex 113.5 17.9594 6
    endloop
  endfacet
  facet normal 0 0 1
    outer loop
      vertex 113.5 17.9594 6
      vertex 111.5 26.3125 6
      vertex 113.436 17.9531 6
    endloop
  endfacet
  facet normal 0 0 1
    outer loop
      vertex 113.436 17.9531 6
      vertex 111.5 26.3125 6
      vertex 113.288 17.9385 6
    endloop
  endfacet
  facet normal 0 0 1
    outer loop
      vertex 113.288 17.9385 6
      vertex 111.5 26.3125 6
      vertex 113.147 17.8955 6
    endloop
  endfacet
  facet normal 0 0 1
    outer loop
      vertex 112.422 16.939 6
      vertex 111.5 26.3125 6
      vertex 112.416 16.875 6
    endloop
  endfacet
  facet normal 0 0 1
    outer loop
      vertex 112.436 17.0865 6
      vertex 111.5 26.3125 6
      vertex 112.422 16.939 6
    endloop
  endfacet
  facet normal 0 0 1
    outer loop
      vertex 112.479 17.2284 6
      vertex 111.5 26.3125 6
      vertex 112.436 17.0865 6
    endloop
  endfacet
  facet normal 0 0 1
    outer loop
      vertex 112.498 17.29 6
      vertex 111.5 26.3125 6
      vertex 112.479 17.2284 6
    endloop
  endfacet
  facet normal 0 0 1
    outer loop
      vertex 112.528 17.3467 6
      vertex 111.5 26.3125 6
      vertex 112.498 17.29 6
    endloop
  endfacet
  facet normal 0 0 1
    outer loop
      vertex 112.598 17.4774 6
      vertex 111.5 26.3125 6
      vertex 112.528 17.3467 6
    endloop
  endfacet
  facet normal 0 0 1
    outer loop
      vertex 112.692 17.592 6
      vertex 111.5 26.3125 6
      vertex 112.598 17.4774 6
    endloop
  endfacet
  facet normal 0 0 1
    outer loop
      vertex 112.733 17.6418 6
      vertex 111.5 26.3125 6
      vertex 112.692 17.592 6
    endloop
  endfacet
  facet normal 0 0 1
    outer loop
      vertex 112.783 17.6826 6
      vertex 111.5 26.3125 6
      vertex 112.733 17.6418 6
    endloop
  endfacet
  facet normal 0 0 1
    outer loop
      vertex 112.898 17.7766 6
      vertex 111.5 26.3125 6
      vertex 112.783 17.6826 6
    endloop
  endfacet
  facet normal 0 0 1
    outer loop
      vertex 113.028 17.8465 6
      vertex 111.5 26.3125 6
      vertex 112.898 17.7766 6
    endloop
  endfacet
  facet normal 0 0 1
    outer loop
      vertex 113.085 17.8768 6
      vertex 111.5 26.3125 6
      vertex 113.028 17.8465 6
    endloop
  endfacet
  facet normal 0 0 1
    outer loop
      vertex 113.147 17.8955 6
      vertex 111.5 26.3125 6
      vertex 113.085 17.8768 6
    endloop
  endfacet
  facet normal -0 0 1
    outer loop
      vertex 133.578 16.811 6
      vertex 135 7.5 6
      vertex 133.584 16.875 6
    endloop
  endfacet
  facet normal -0 0 1
    outer loop
      vertex 133.564 16.6634 6
      vertex 135 7.5 6
      vertex 133.578 16.811 6
    endloop
  endfacet
  facet normal -0 0 1
    outer loop
      vertex 133.521 16.5216 6
      vertex 135 7.5 6
      vertex 133.564 16.6634 6
    endloop
  endfacet
  facet normal -0 0 1
    outer loop
      vertex 133.502 16.46 6
      vertex 135 7.5 6
      vertex 133.521 16.5216 6
    endloop
  endfacet
  facet normal -0 0 1
    outer loop
      vertex 133.472 16.4033 6
      vertex 135 7.5 6
      vertex 133.502 16.46 6
    endloop
  endfacet
  facet normal -0 0 1
    outer loop
      vertex 133.402 16.2726 6
      vertex 135 7.5 6
      vertex 133.472 16.4033 6
    endloop
  endfacet
  facet normal -0 0 1
    outer loop
      vertex 133.308 16.158 6
      vertex 135 7.5 6
      vertex 133.402 16.2726 6
    endloop
  endfacet
  facet normal -0 0 1
    outer loop
      vertex 133.267 16.1082 6
      vertex 135 7.5 6
      vertex 133.308 16.158 6
    endloop
  endfacet
  facet normal -0 0 1
    outer loop
      vertex 133.217 16.0674 6
      vertex 135 7.5 6
      vertex 133.267 16.1082 6
    endloop
  endfacet
  facet normal -0 0 1
    outer loop
      vertex 133.102 15.9734 6
      vertex 135 7.5 6
      vertex 133.217 16.0674 6
    endloop
  endfacet
  facet normal -0 0 1
    outer loop
      vertex 132.972 15.9035 6
      vertex 135 7.5 6
      vertex 133.102 15.9734 6
    endloop
  endfacet
  facet normal -0 0 1
    outer loop
      vertex 132.915 15.8732 6
      vertex 135 7.5 6
      vertex 132.972 15.9035 6
    endloop
  endfacet
  facet normal -0 0 1
    outer loop
      vertex 132.853 15.8545 6
      vertex 135 7.5 6
      vertex 132.915 15.8732 6
    endloop
  endfacet
  facet normal -0 0 1
    outer loop
      vertex 132.712 15.8115 6
      vertex 135 7.5 6
      vertex 132.853 15.8545 6
    endloop
  endfacet
  facet normal -0 0 1
    outer loop
      vertex 132.564 15.7969 6
      vertex 135 7.5 6
      vertex 132.712 15.8115 6
    endloop
  endfacet
  facet normal -0 0 1
    outer loop
      vertex 132.5 15.7906 6
      vertex 135 7.5 6
      vertex 132.564 15.7969 6
    endloop
  endfacet
  facet normal 0 0 1
    outer loop
      vertex 132.436 15.7969 6
      vertex 135 7.5 6
      vertex 132.5 15.7906 6
    endloop
  endfacet
  facet normal 0 0 1
    outer loop
      vertex 132.288 15.8115 6
      vertex 135 7.5 6
      vertex 132.436 15.7969 6
    endloop
  endfacet
  facet normal 0 0 1
    outer loop
      vertex 132.147 15.8545 6
      vertex 135 7.5 6
      vertex 132.288 15.8115 6
    endloop
  endfacet
  facet normal 0 0 1
    outer loop
      vertex 132.085 15.8732 6
      vertex 135 7.5 6
      vertex 132.147 15.8545 6
    endloop
  endfacet
  facet normal 0 0 1
    outer loop
      vertex 132.028 15.9035 6
      vertex 135 7.5 6
      vertex 132.085 15.8732 6
    endloop
  endfacet
  facet normal 0 0 1
    outer loop
      vertex 131.898 15.9734 6
      vertex 135 7.5 6
      vertex 132.028 15.9035 6
    endloop
  endfacet
  facet normal 0 0 1
    outer loop
      vertex 131.783 16.0674 6
      vertex 135 7.5 6
      vertex 131.898 15.9734 6
    endloop
  endfacet
  facet normal 0 0 1
    outer loop
      vertex 131.733 16.1082 6
      vertex 135 7.5 6
      vertex 131.783 16.0674 6
    endloop
  endfacet
  facet normal 0 0 1
    outer loop
      vertex 114.267 16.1082 6
      vertex 131.733 16.1082 6
      vertex 131.692 16.158 6
    endloop
  endfacet
  facet normal 0 0 1
    outer loop
      vertex 114.267 16.1082 6
      vertex 131.692 16.158 6
      vertex 131.598 16.2726 6
    endloop
  endfacet
  facet normal 0 0 1
    outer loop
      vertex 114.402 16.2726 6
      vertex 131.598 16.2726 6
      vertex 131.528 16.4033 6
    endloop
  endfacet
  facet normal 0 0 1
    outer loop
      vertex 114.472 16.4033 6
      vertex 131.528 16.4033 6
      vertex 131.498 16.46 6
    endloop
  endfacet
  facet normal -0 0 1
    outer loop
      vertex 114.584 16.875 6
      vertex 131.422 16.811 6
      vertex 131.416 16.875 6
    endloop
  endfacet
  facet normal 0 0 1
    outer loop
      vertex 114.578 16.811 6
      vertex 131.422 16.811 6
      vertex 114.584 16.875 6
    endloop
  endfacet
  facet normal 0 0 1
    outer loop
      vertex 131.422 16.811 6
      vertex 114.578 16.811 6
      vertex 131.436 16.6634 6
    endloop
  endfacet
  facet normal 0 0 1
    outer loop
      vertex 114.564 16.6634 6
      vertex 131.436 16.6634 6
      vertex 114.578 16.811 6
    endloop
  endfacet
  facet normal 0 0 1
    outer loop
      vertex 131.436 16.6634 6
      vertex 114.564 16.6634 6
      vertex 131.479 16.5216 6
    endloop
  endfacet
  facet normal 0 0 1
    outer loop
      vertex 114.521 16.5216 6
      vertex 131.479 16.5216 6
      vertex 114.564 16.6634 6
    endloop
  endfacet
  facet normal 0 0 1
    outer loop
      vertex 131.479 16.5216 6
      vertex 114.521 16.5216 6
      vertex 131.498 16.46 6
    endloop
  endfacet
  facet normal 0 0 1
    outer loop
      vertex 114.502 16.46 6
      vertex 131.498 16.46 6
      vertex 114.521 16.5216 6
    endloop
  endfacet
  facet normal 0 0 1
    outer loop
      vertex 114.472 16.4033 6
      vertex 131.498 16.46 6
      vertex 114.502 16.46 6
    endloop
  endfacet
  facet normal 0 0 1
    outer loop
      vertex 131.528 16.4033 6
      vertex 114.472 16.4033 6
      vertex 114.402 16.2726 6
    endloop
  endfacet
  facet normal 0 0 1
    outer loop
      vertex 131.598 16.2726 6
      vertex 114.402 16.2726 6
      vertex 114.308 16.158 6
    endloop
  endfacet
  facet normal 0 0 1
    outer loop
      vertex 131.598 16.2726 6
      vertex 114.308 16.158 6
      vertex 114.267 16.1082 6
    endloop
  endfacet
  facet normal 0 0 1
    outer loop
      vertex 131.733 16.1082 6
      vertex 114.267 16.1082 6
      vertex 111.5 7.5 6
    endloop
  endfacet
  facet normal 0 0 1
    outer loop
      vertex 111.5 7.5 6
      vertex 114.267 16.1082 6
      vertex 114.217 16.0674 6
    endloop
  endfacet
  facet normal 0 0 1
    outer loop
      vertex 111.5 7.5 6
      vertex 114.217 16.0674 6
      vertex 114.102 15.9734 6
    endloop
  endfacet
  facet normal 0 0 1
    outer loop
      vertex 111.5 7.5 6
      vertex 114.102 15.9734 6
      vertex 113.972 15.9035 6
    endloop
  endfacet
  facet normal 0 0 1
    outer loop
      vertex 111.5 7.5 6
      vertex 113.972 15.9035 6
      vertex 113.915 15.8732 6
    endloop
  endfacet
  facet normal 0 0 1
    outer loop
      vertex 111.5 7.5 6
      vertex 113.915 15.8732 6
      vertex 113.853 15.8545 6
    endloop
  endfacet
  facet normal 0 0 1
    outer loop
      vertex 111.5 7.5 6
      vertex 113.853 15.8545 6
      vertex 113.712 15.8115 6
    endloop
  endfacet
  facet normal 0 0 1
    outer loop
      vertex 111.5 7.5 6
      vertex 113.712 15.8115 6
      vertex 113.564 15.7969 6
    endloop
  endfacet
  facet normal 0 0 1
    outer loop
      vertex 111.5 7.5 6
      vertex 113.564 15.7969 6
      vertex 113.5 15.7906 6
    endloop
  endfacet
  facet normal 0 0 1
    outer loop
      vertex 111.5 7.5 6
      vertex 113.5 15.7906 6
      vertex 113.436 15.7969 6
    endloop
  endfacet
  facet normal 0 0 1
    outer loop
      vertex 111.5 7.5 6
      vertex 113.436 15.7969 6
      vertex 113.288 15.8115 6
    endloop
  endfacet
  facet normal 0 0 1
    outer loop
      vertex 111.5 7.5 6
      vertex 113.288 15.8115 6
      vertex 113.147 15.8545 6
    endloop
  endfacet
  facet normal 0 0 1
    outer loop
      vertex 111.5 7.5 6
      vertex 113.147 15.8545 6
      vertex 113.085 15.8732 6
    endloop
  endfacet
  facet normal 0 0 1
    outer loop
      vertex 131.733 16.1082 6
      vertex 111.5 7.5 6
      vertex 135 7.5 6
    endloop
  endfacet
  facet normal 0 0 1
    outer loop
      vertex 113.028 15.9035 6
      vertex 111.5 7.5 6
      vertex 113.085 15.8732 6
    endloop
  endfacet
  facet normal 0 0 1
    outer loop
      vertex 112.898 15.9734 6
      vertex 111.5 7.5 6
      vertex 113.028 15.9035 6
    endloop
  endfacet
  facet normal 0 0 1
    outer loop
      vertex 112.783 16.0674 6
      vertex 111.5 7.5 6
      vertex 112.898 15.9734 6
    endloop
  endfacet
  facet normal 0 0 1
    outer loop
      vertex 112.733 16.1082 6
      vertex 111.5 7.5 6
      vertex 112.783 16.0674 6
    endloop
  endfacet
  facet normal 0 0 1
    outer loop
      vertex 112.692 16.158 6
      vertex 111.5 7.5 6
      vertex 112.733 16.1082 6
    endloop
  endfacet
  facet normal 0 0 1
    outer loop
      vertex 112.598 16.2726 6
      vertex 111.5 7.5 6
      vertex 112.692 16.158 6
    endloop
  endfacet
  facet normal 0 0 1
    outer loop
      vertex 112.528 16.4033 6
      vertex 111.5 7.5 6
      vertex 112.598 16.2726 6
    endloop
  endfacet
  facet normal 0 0 1
    outer loop
      vertex 112.498 16.46 6
      vertex 111.5 7.5 6
      vertex 112.528 16.4033 6
    endloop
  endfacet
  facet normal 0 0 1
    outer loop
      vertex 112.479 16.5216 6
      vertex 111.5 7.5 6
      vertex 112.498 16.46 6
    endloop
  endfacet
  facet normal 0 0 1
    outer loop
      vertex 112.436 16.6634 6
      vertex 111.5 7.5 6
      vertex 112.479 16.5216 6
    endloop
  endfacet
  facet normal 0 0 1
    outer loop
      vertex 112.422 16.811 6
      vertex 111.5 7.5 6
      vertex 112.436 16.6634 6
    endloop
  endfacet
  facet normal 0 0 1
    outer loop
      vertex 112.416 16.875 6
      vertex 111.5 7.5 6
      vertex 112.422 16.811 6
    endloop
  endfacet
  facet normal 0 0 1
    outer loop
      vertex 111.5 7.5 6
      vertex 112.416 16.875 6
      vertex 111.5 26.3125 6
    endloop
  endfacet
  facet normal 1 -0 0
    outer loop
      vertex 135 7.5 6
      vertex 135 26.3125 3
      vertex 135 26.3125 6
    endloop
  endfacet
  facet normal 1 0 0
    outer loop
      vertex 135 26.3125 3
      vertex 135 7.5 6
      vertex 135 7.5 3
    endloop
  endfacet
  facet normal 0 1 -0
    outer loop
      vertex 135 26.3125 3
      vertex 111.5 26.3125 6
      vertex 135 26.3125 6
    endloop
  endfacet
  facet normal 0 1 0
    outer loop
      vertex 111.5 26.3125 6
      vertex 135 26.3125 3
      vertex 111.5 26.3125 3
    endloop
  endfacet
  facet normal 0 0 -1
    outer loop
      vertex 135 7.5 3
      vertex 133.566 16.875 3
      vertex 135 26.3125 3
    endloop
  endfacet
  facet normal 0 0 -1
    outer loop
      vertex 135 7.5 3
      vertex 133.552 16.7342 3
      vertex 133.566 16.875 3
    endloop
  endfacet
  facet normal 0 0 -1
    outer loop
      vertex 135 7.5 3
      vertex 133.545 16.6671 3
      vertex 133.552 16.7342 3
    endloop
  endfacet
  facet normal 0 0 -1
    outer loop
      vertex 135 7.5 3
      vertex 133.526 16.6026 3
      vertex 133.545 16.6671 3
    endloop
  endfacet
  facet normal 0 0 -1
    outer loop
      vertex 135 7.5 3
      vertex 133.485 16.4672 3
      vertex 133.526 16.6026 3
    endloop
  endfacet
  facet normal 0 0 -1
    outer loop
      vertex 135 7.5 3
      vertex 133.418 16.3424 3
      vertex 133.485 16.4672 3
    endloop
  endfacet
  facet normal 0 0 -1
    outer loop
      vertex 135 7.5 3
      vertex 133.386 16.283 3
      vertex 133.418 16.3424 3
    endloop
  endfacet
  facet normal 0 0 -1
    outer loop
      vertex 135 7.5 3
      vertex 133.343 16.2309 3
      vertex 133.386 16.283 3
    endloop
  endfacet
  facet normal 0 0 -1
    outer loop
      vertex 135 7.5 3
      vertex 133.254 16.1215 3
      vertex 133.343 16.2309 3
    endloop
  endfacet
  facet normal 0 0 -1
    outer loop
      vertex 135 7.5 3
      vertex 133.144 16.0317 3
      vertex 133.254 16.1215 3
    endloop
  endfacet
  facet normal 0 0 -1
    outer loop
      vertex 135 7.5 3
      vertex 133.092 15.989 3
      vertex 133.144 16.0317 3
    endloop
  endfacet
  facet normal 0 0 -1
    outer loop
      vertex 135 7.5 3
      vertex 133.033 15.9572 3
      vertex 133.092 15.989 3
    endloop
  endfacet
  facet normal 0 0 -1
    outer loop
      vertex 135 7.5 3
      vertex 132.908 15.8905 3
      vertex 133.033 15.9572 3
    endloop
  endfacet
  facet normal 0 0 -1
    outer loop
      vertex 135 7.5 3
      vertex 132.772 15.8494 3
      vertex 132.908 15.8905 3
    endloop
  endfacet
  facet normal 0 0 -1
    outer loop
      vertex 135 7.5 3
      vertex 132.708 15.8299 3
      vertex 132.772 15.8494 3
    endloop
  endfacet
  facet normal 0 0 -1
    outer loop
      vertex 135 7.5 3
      vertex 132.641 15.8232 3
      vertex 132.708 15.8299 3
    endloop
  endfacet
  facet normal 0 0 -1
    outer loop
      vertex 135 7.5 3
      vertex 132.5 15.8094 3
      vertex 132.641 15.8232 3
    endloop
  endfacet
  facet normal 0 0 -1
    outer loop
      vertex 135 7.5 3
      vertex 132.359 15.8232 3
      vertex 132.5 15.8094 3
    endloop
  endfacet
  facet normal 0 0 -1
    outer loop
      vertex 135 7.5 3
      vertex 132.292 15.8299 3
      vertex 132.359 15.8232 3
    endloop
  endfacet
  facet normal 0 0 -1
    outer loop
      vertex 135 7.5 3
      vertex 132.228 15.8494 3
      vertex 132.292 15.8299 3
    endloop
  endfacet
  facet normal 0 0 -1
    outer loop
      vertex 135 7.5 3
      vertex 132.092 15.8905 3
      vertex 132.228 15.8494 3
    endloop
  endfacet
  facet normal 0 0 -1
    outer loop
      vertex 135 7.5 3
      vertex 131.967 15.9572 3
      vertex 132.092 15.8905 3
    endloop
  endfacet
  facet normal 0 0 -1
    outer loop
      vertex 135 7.5 3
      vertex 131.908 15.989 3
      vertex 131.967 15.9572 3
    endloop
  endfacet
  facet normal 0 0 -1
    outer loop
      vertex 135 7.5 3
      vertex 131.856 16.0317 3
      vertex 131.908 15.989 3
    endloop
  endfacet
  facet normal 0 0 -1
    outer loop
      vertex 135 7.5 3
      vertex 131.746 16.1215 3
      vertex 131.856 16.0317 3
    endloop
  endfacet
  facet normal 0 0 -1
    outer loop
      vertex 111.5 7.5 3
      vertex 131.746 16.1215 3
      vertex 135 7.5 3
    endloop
  endfacet
  facet normal 0 -0 -1
    outer loop
      vertex 114.254 16.1215 3
      vertex 131.746 16.1215 3
      vertex 111.5 7.5 3
    endloop
  endfacet
  facet normal 0 0 -1
    outer loop
      vertex 131.746 16.1215 3
      vertex 114.254 16.1215 3
      vertex 131.657 16.2309 3
    endloop
  endfacet
  facet normal -0 0 -1
    outer loop
      vertex 131.657 16.2309 3
      vertex 114.254 16.1215 3
      vertex 131.614 16.283 3
    endloop
  endfacet
  facet normal 0 0 -1
    outer loop
      vertex 114.526 16.6026 3
      vertex 131.474 16.6026 3
      vertex 131.515 16.4672 3
    endloop
  endfacet
  facet normal 0 0 -1
    outer loop
      vertex 131.448 16.7342 3
      vertex 114.566 16.875 3
      vertex 131.434 16.875 3
    endloop
  endfacet
  facet normal 0 0 -1
    outer loop
      vertex 114.552 16.7342 3
      vertex 131.448 16.7342 3
      vertex 131.455 16.6671 3
    endloop
  endfacet
  facet normal 0 0 -1
    outer loop
      vertex 131.474 16.6026 3
      vertex 114.545 16.6671 3
      vertex 131.455 16.6671 3
    endloop
  endfacet
  facet normal 0 -0 -1
    outer loop
      vertex 114.343 16.2309 3
      vertex 131.614 16.283 3
      vertex 114.254 16.1215 3
    endloop
  endfacet
  facet normal 0 0 -1
    outer loop
      vertex 131.448 16.7342 3
      vertex 114.552 16.7342 3
      vertex 114.566 16.875 3
    endloop
  endfacet
  facet normal 0 0 -1
    outer loop
      vertex 131.455 16.6671 3
      vertex 114.545 16.6671 3
      vertex 114.552 16.7342 3
    endloop
  endfacet
  facet normal 0 0 -1
    outer loop
      vertex 131.474 16.6026 3
      vertex 114.526 16.6026 3
      vertex 114.545 16.6671 3
    endloop
  endfacet
  facet normal 0 0 -1
    outer loop
      vertex 131.515 16.4672 3
      vertex 114.485 16.4672 3
      vertex 114.526 16.6026 3
    endloop
  endfacet
  facet normal -0 0 -1
    outer loop
      vertex 131.515 16.4672 3
      vertex 114.418 16.3424 3
      vertex 114.485 16.4672 3
    endloop
  endfacet
  facet normal 0 0 -1
    outer loop
      vertex 131.582 16.3424 3
      vertex 114.418 16.3424 3
      vertex 131.515 16.4672 3
    endloop
  endfacet
  facet normal 0 -0 -1
    outer loop
      vertex 114.418 16.3424 3
      vertex 131.582 16.3424 3
      vertex 114.386 16.283 3
    endloop
  endfacet
  facet normal 0 0 -1
    outer loop
      vertex 131.614 16.283 3
      vertex 114.386 16.283 3
      vertex 131.582 16.3424 3
    endloop
  endfacet
  facet normal 0 -0 -1
    outer loop
      vertex 114.386 16.283 3
      vertex 131.614 16.283 3
      vertex 114.343 16.2309 3
    endloop
  endfacet
  facet normal 0 0 -1
    outer loop
      vertex 114.254 16.1215 3
      vertex 111.5 7.5 3
      vertex 114.144 16.0317 3
    endloop
  endfacet
  facet normal 0 0 -1
    outer loop
      vertex 114.144 16.0317 3
      vertex 111.5 7.5 3
      vertex 114.092 15.989 3
    endloop
  endfacet
  facet normal 0 0 -1
    outer loop
      vertex 114.092 15.989 3
      vertex 111.5 7.5 3
      vertex 114.033 15.9572 3
    endloop
  endfacet
  facet normal 0 0 -1
    outer loop
      vertex 114.033 15.9572 3
      vertex 111.5 7.5 3
      vertex 113.908 15.8905 3
    endloop
  endfacet
  facet normal 0 0 -1
    outer loop
      vertex 113.908 15.8905 3
      vertex 111.5 7.5 3
      vertex 113.772 15.8494 3
    endloop
  endfacet
  facet normal 0 0 -1
    outer loop
      vertex 113.772 15.8494 3
      vertex 111.5 7.5 3
      vertex 113.708 15.8299 3
    endloop
  endfacet
  facet normal 0 0 -1
    outer loop
      vertex 113.708 15.8299 3
      vertex 111.5 7.5 3
      vertex 113.641 15.8232 3
    endloop
  endfacet
  facet normal 0 0 -1
    outer loop
      vertex 113.641 15.8232 3
      vertex 111.5 7.5 3
      vertex 113.5 15.8094 3
    endloop
  endfacet
  facet normal -0 0 -1
    outer loop
      vertex 113.5 15.8094 3
      vertex 111.5 7.5 3
      vertex 113.359 15.8232 3
    endloop
  endfacet
  facet normal -0 0 -1
    outer loop
      vertex 113.359 15.8232 3
      vertex 111.5 7.5 3
      vertex 113.292 15.8299 3
    endloop
  endfacet
  facet normal -0 0 -1
    outer loop
      vertex 113.292 15.8299 3
      vertex 111.5 7.5 3
      vertex 113.228 15.8494 3
    endloop
  endfacet
  facet normal 0 0 -1
    outer loop
      vertex 111.5 7.5 3
      vertex 112.967 15.9572 3
      vertex 113.092 15.8905 3
    endloop
  endfacet
  facet normal 0 0 -1
    outer loop
      vertex 111.5 7.5 3
      vertex 112.856 16.0317 3
      vertex 112.908 15.989 3
    endloop
  endfacet
  facet normal 0 0 -1
    outer loop
      vertex 112.515 16.4672 3
      vertex 112.455 16.6671 3
      vertex 112.474 16.6026 3
    endloop
  endfacet
  facet normal -0 0 -1
    outer loop
      vertex 112.448 16.7342 3
      vertex 111.5 7.5 3
      vertex 112.434 16.875 3
    endloop
  endfacet
  facet normal -0 0 -1
    outer loop
      vertex 112.455 16.6671 3
      vertex 111.5 7.5 3
      vertex 112.448 16.7342 3
    endloop
  endfacet
  facet normal -0 0 -1
    outer loop
      vertex 112.515 16.4672 3
      vertex 111.5 7.5 3
      vertex 112.455 16.6671 3
    endloop
  endfacet
  facet normal -0 0 -1
    outer loop
      vertex 112.582 16.3424 3
      vertex 111.5 7.5 3
      vertex 112.515 16.4672 3
    endloop
  endfacet
  facet normal -0 0 -1
    outer loop
      vertex 112.614 16.283 3
      vertex 111.5 7.5 3
      vertex 112.582 16.3424 3
    endloop
  endfacet
  facet normal -0 0 -1
    outer loop
      vertex 112.657 16.2309 3
      vertex 111.5 7.5 3
      vertex 112.614 16.283 3
    endloop
  endfacet
  facet normal -0 0 -1
    outer loop
      vertex 112.746 16.1215 3
      vertex 111.5 7.5 3
      vertex 112.657 16.2309 3
    endloop
  endfacet
  facet normal -0 0 -1
    outer loop
      vertex 112.856 16.0317 3
      vertex 111.5 7.5 3
      vertex 112.746 16.1215 3
    endloop
  endfacet
  facet normal -0 0 -1
    outer loop
      vertex 112.967 15.9572 3
      vertex 111.5 7.5 3
      vertex 112.908 15.989 3
    endloop
  endfacet
  facet normal -0 0 -1
    outer loop
      vertex 113.228 15.8494 3
      vertex 111.5 7.5 3
      vertex 113.092 15.8905 3
    endloop
  endfacet
  facet normal 0 0 -1
    outer loop
      vertex 133.552 17.0158 3
      vertex 135 26.3125 3
      vertex 133.566 16.875 3
    endloop
  endfacet
  facet normal 0 0 -1
    outer loop
      vertex 133.545 17.0829 3
      vertex 135 26.3125 3
      vertex 133.552 17.0158 3
    endloop
  endfacet
  facet normal 0 0 -1
    outer loop
      vertex 133.526 17.1474 3
      vertex 135 26.3125 3
      vertex 133.545 17.0829 3
    endloop
  endfacet
  facet normal 0 0 -1
    outer loop
      vertex 133.485 17.2828 3
      vertex 135 26.3125 3
      vertex 133.526 17.1474 3
    endloop
  endfacet
  facet normal 0 0 -1
    outer loop
      vertex 133.418 17.4076 3
      vertex 135 26.3125 3
      vertex 133.485 17.2828 3
    endloop
  endfacet
  facet normal 0 0 -1
    outer loop
      vertex 133.386 17.467 3
      vertex 135 26.3125 3
      vertex 133.418 17.4076 3
    endloop
  endfacet
  facet normal 0 0 -1
    outer loop
      vertex 133.343 17.5191 3
      vertex 135 26.3125 3
      vertex 133.386 17.467 3
    endloop
  endfacet
  facet normal 0 0 -1
    outer loop
      vertex 133.254 17.6285 3
      vertex 135 26.3125 3
      vertex 133.343 17.5191 3
    endloop
  endfacet
  facet normal 0 0 -1
    outer loop
      vertex 133.144 17.7183 3
      vertex 135 26.3125 3
      vertex 133.254 17.6285 3
    endloop
  endfacet
  facet normal 0 0 -1
    outer loop
      vertex 133.092 17.761 3
      vertex 135 26.3125 3
      vertex 133.144 17.7183 3
    endloop
  endfacet
  facet normal 0 0 -1
    outer loop
      vertex 133.033 17.7928 3
      vertex 135 26.3125 3
      vertex 133.092 17.761 3
    endloop
  endfacet
  facet normal 0 0 -1
    outer loop
      vertex 132.908 17.8595 3
      vertex 135 26.3125 3
      vertex 133.033 17.7928 3
    endloop
  endfacet
  facet normal 0 0 -1
    outer loop
      vertex 132.772 17.9006 3
      vertex 135 26.3125 3
      vertex 132.908 17.8595 3
    endloop
  endfacet
  facet normal 0 0 -1
    outer loop
      vertex 132.708 17.9201 3
      vertex 135 26.3125 3
      vertex 132.772 17.9006 3
    endloop
  endfacet
  facet normal 0 0 -1
    outer loop
      vertex 132.641 17.9268 3
      vertex 135 26.3125 3
      vertex 132.708 17.9201 3
    endloop
  endfacet
  facet normal 0 0 -1
    outer loop
      vertex 132.5 17.9406 3
      vertex 135 26.3125 3
      vertex 132.641 17.9268 3
    endloop
  endfacet
  facet normal 0 0 -1
    outer loop
      vertex 132.359 17.9268 3
      vertex 135 26.3125 3
      vertex 132.5 17.9406 3
    endloop
  endfacet
  facet normal 0 0 -1
    outer loop
      vertex 132.292 17.9201 3
      vertex 135 26.3125 3
      vertex 132.359 17.9268 3
    endloop
  endfacet
  facet normal 0 0 -1
    outer loop
      vertex 132.228 17.9006 3
      vertex 135 26.3125 3
      vertex 132.292 17.9201 3
    endloop
  endfacet
  facet normal 0 0 -1
    outer loop
      vertex 132.092 17.8595 3
      vertex 135 26.3125 3
      vertex 132.228 17.9006 3
    endloop
  endfacet
  facet normal 0 0 -1
    outer loop
      vertex 131.967 17.7928 3
      vertex 135 26.3125 3
      vertex 132.092 17.8595 3
    endloop
  endfacet
  facet normal 0 0 -1
    outer loop
      vertex 131.908 17.761 3
      vertex 135 26.3125 3
      vertex 131.967 17.7928 3
    endloop
  endfacet
  facet normal 0 0 -1
    outer loop
      vertex 131.856 17.7183 3
      vertex 135 26.3125 3
      vertex 131.908 17.761 3
    endloop
  endfacet
  facet normal 0 0 -1
    outer loop
      vertex 131.746 17.6285 3
      vertex 135 26.3125 3
      vertex 131.856 17.7183 3
    endloop
  endfacet
  facet normal 0 0 -1
    outer loop
      vertex 114.254 17.6285 3
      vertex 131.746 17.6285 3
      vertex 131.657 17.5191 3
    endloop
  endfacet
  facet normal 0 0 -1
    outer loop
      vertex 114.254 17.6285 3
      vertex 131.657 17.5191 3
      vertex 131.614 17.467 3
    endloop
  endfacet
  facet normal 0 0 -1
    outer loop
      vertex 114.386 17.467 3
      vertex 131.614 17.467 3
      vertex 131.582 17.4076 3
    endloop
  endfacet
  facet normal 0 0 -1
    outer loop
      vertex 114.418 17.4076 3
      vertex 131.582 17.4076 3
      vertex 131.515 17.2828 3
    endloop
  endfacet
  facet normal 0 0 -1
    outer loop
      vertex 114.545 17.0829 3
      vertex 131.474 17.1474 3
      vertex 131.455 17.0829 3
    endloop
  endfacet
  facet normal 0 0 -1
    outer loop
      vertex 114.566 16.875 3
      vertex 131.448 17.0158 3
      vertex 131.434 16.875 3
    endloop
  endfacet
  facet normal 0 0 -1
    outer loop
      vertex 114.552 17.0158 3
      vertex 131.448 17.0158 3
      vertex 114.566 16.875 3
    endloop
  endfacet
  facet normal 0 0 -1
    outer loop
      vertex 131.448 17.0158 3
      vertex 114.552 17.0158 3
      vertex 131.455 17.0829 3
    endloop
  endfacet
  facet normal 0 0 -1
    outer loop
      vertex 114.545 17.0829 3
      vertex 131.455 17.0829 3
      vertex 114.552 17.0158 3
    endloop
  endfacet
  facet normal 0 0 -1
    outer loop
      vertex 114.526 17.1474 3
      vertex 131.474 17.1474 3
      vertex 114.545 17.0829 3
    endloop
  endfacet
  facet normal 0 0 -1
    outer loop
      vertex 131.474 17.1474 3
      vertex 114.526 17.1474 3
      vertex 131.515 17.2828 3
    endloop
  endfacet
  facet normal 0 0 -1
    outer loop
      vertex 114.485 17.2828 3
      vertex 131.515 17.2828 3
      vertex 114.526 17.1474 3
    endloop
  endfacet
  facet normal 0 0 -1
    outer loop
      vertex 114.418 17.4076 3
      vertex 131.515 17.2828 3
      vertex 114.485 17.2828 3
    endloop
  endfacet
  facet normal 0 0 -1
    outer loop
      vertex 131.582 17.4076 3
      vertex 114.418 17.4076 3
      vertex 114.386 17.467 3
    endloop
  endfacet
  facet normal 0 0 -1
    outer loop
      vertex 131.614 17.467 3
      vertex 114.386 17.467 3
      vertex 114.343 17.5191 3
    endloop
  endfacet
  facet normal 0 0 -1
    outer loop
      vertex 131.614 17.467 3
      vertex 114.343 17.5191 3
      vertex 114.254 17.6285 3
    endloop
  endfacet
  facet normal 0 0 -1
    outer loop
      vertex 131.746 17.6285 3
      vertex 114.254 17.6285 3
      vertex 111.5 26.3125 3
    endloop
  endfacet
  facet normal 0 0 -1
    outer loop
      vertex 111.5 26.3125 3
      vertex 114.254 17.6285 3
      vertex 114.144 17.7183 3
    endloop
  endfacet
  facet normal 0 0 -1
    outer loop
      vertex 111.5 26.3125 3
      vertex 114.144 17.7183 3
      vertex 114.092 17.761 3
    endloop
  endfacet
  facet normal 0 0 -1
    outer loop
      vertex 111.5 26.3125 3
      vertex 114.092 17.761 3
      vertex 114.033 17.7928 3
    endloop
  endfacet
  facet normal 0 0 -1
    outer loop
      vertex 111.5 26.3125 3
      vertex 114.033 17.7928 3
      vertex 113.908 17.8595 3
    endloop
  endfacet
  facet normal 0 0 -1
    outer loop
      vertex 111.5 26.3125 3
      vertex 113.908 17.8595 3
      vertex 113.772 17.9006 3
    endloop
  endfacet
  facet normal 0 0 -1
    outer loop
      vertex 111.5 26.3125 3
      vertex 113.772 17.9006 3
      vertex 113.708 17.9201 3
    endloop
  endfacet
  facet normal 0 0 -1
    outer loop
      vertex 111.5 26.3125 3
      vertex 113.708 17.9201 3
      vertex 113.641 17.9268 3
    endloop
  endfacet
  facet normal 0 0 -1
    outer loop
      vertex 111.5 26.3125 3
      vertex 113.641 17.9268 3
      vertex 113.5 17.9406 3
    endloop
  endfacet
  facet normal 0 0 -1
    outer loop
      vertex 111.5 26.3125 3
      vertex 113.5 17.9406 3
      vertex 113.359 17.9268 3
    endloop
  endfacet
  facet normal 0 0 -1
    outer loop
      vertex 111.5 26.3125 3
      vertex 113.359 17.9268 3
      vertex 113.292 17.9201 3
    endloop
  endfacet
  facet normal 0 0 -1
    outer loop
      vertex 111.5 26.3125 3
      vertex 113.292 17.9201 3
      vertex 113.228 17.9006 3
    endloop
  endfacet
  facet normal 0 0 -1
    outer loop
      vertex 111.5 26.3125 3
      vertex 113.228 17.9006 3
      vertex 113.092 17.8595 3
    endloop
  endfacet
  facet normal 0 0 -1
    outer loop
      vertex 111.5 26.3125 3
      vertex 112.967 17.7928 3
      vertex 112.908 17.761 3
    endloop
  endfacet
  facet normal 0 0 -1
    outer loop
      vertex 111.5 26.3125 3
      vertex 112.856 17.7183 3
      vertex 112.746 17.6285 3
    endloop
  endfacet
  facet normal 0 0 -1
    outer loop
      vertex 112.455 17.0829 3
      vertex 112.515 17.2828 3
      vertex 112.474 17.1474 3
    endloop
  endfacet
  facet normal 0 0 -1
    outer loop
      vertex 111.5 26.3125 3
      vertex 112.434 16.875 3
      vertex 111.5 7.5 3
    endloop
  endfacet
  facet normal 0 0 -1
    outer loop
      vertex 112.434 16.875 3
      vertex 111.5 26.3125 3
      vertex 112.448 17.0158 3
    endloop
  endfacet
  facet normal 0 0 -1
    outer loop
      vertex 131.746 17.6285 3
      vertex 111.5 26.3125 3
      vertex 135 26.3125 3
    endloop
  endfacet
  facet normal 0 0 -1
    outer loop
      vertex 112.967 17.7928 3
      vertex 111.5 26.3125 3
      vertex 113.092 17.8595 3
    endloop
  endfacet
  facet normal 0 0 -1
    outer loop
      vertex 112.856 17.7183 3
      vertex 111.5 26.3125 3
      vertex 112.908 17.761 3
    endloop
  endfacet
  facet normal 0 0 -1
    outer loop
      vertex 112.657 17.5191 3
      vertex 111.5 26.3125 3
      vertex 112.746 17.6285 3
    endloop
  endfacet
  facet normal 0 0 -1
    outer loop
      vertex 112.614 17.467 3
      vertex 111.5 26.3125 3
      vertex 112.657 17.5191 3
    endloop
  endfacet
  facet normal 0 0 -1
    outer loop
      vertex 112.582 17.4076 3
      vertex 111.5 26.3125 3
      vertex 112.614 17.467 3
    endloop
  endfacet
  facet normal 0 0 -1
    outer loop
      vertex 112.515 17.2828 3
      vertex 111.5 26.3125 3
      vertex 112.582 17.4076 3
    endloop
  endfacet
  facet normal 0 0 -1
    outer loop
      vertex 112.455 17.0829 3
      vertex 111.5 26.3125 3
      vertex 112.515 17.2828 3
    endloop
  endfacet
  facet normal 0 0 -1
    outer loop
      vertex 112.448 17.0158 3
      vertex 111.5 26.3125 3
      vertex 112.455 17.0829 3
    endloop
  endfacet
  facet normal 0 -1 0
    outer loop
      vertex 111.5 7.5 3
      vertex 135 7.5 6
      vertex 111.5 7.5 6
    endloop
  endfacet
  facet normal 0 -1 -0
    outer loop
      vertex 135 7.5 6
      vertex 111.5 7.5 3
      vertex 135 7.5 3
    endloop
  endfacet
  facet normal -0.995166 -0.0980124 0.0062192
    outer loop
      vertex 114.566 16.875 3
      vertex 114.578 16.939 6
      vertex 114.552 17.0158 3
    endloop
  endfacet
  facet normal -0.99517 -0.0979692 0.00621829
    outer loop
      vertex 114.578 16.939 6
      vertex 114.566 16.875 3
      vertex 114.584 16.875 6
    endloop
  endfacet
  facet normal 0.99517 0.0979692 0.00621829
    outer loop
      vertex 112.422 16.811 6
      vertex 112.434 16.875 3
      vertex 112.416 16.875 6
    endloop
  endfacet
  facet normal 0.995166 0.0980124 0.0062192
    outer loop
      vertex 112.434 16.875 3
      vertex 112.422 16.811 6
      vertex 112.448 16.7342 3
    endloop
  endfacet
  facet normal 0.0980124 -0.995166 0.00621971
    outer loop
      vertex 113.5 17.9406 3
      vertex 113.436 17.9531 6
      vertex 113.359 17.9268 3
    endloop
  endfacet
  facet normal 0.0980043 -0.995167 0.00621954
    outer loop
      vertex 113.436 17.9531 6
      vertex 113.5 17.9406 3
      vertex 113.5 17.9594 6
    endloop
  endfacet
  facet normal -0.995163 0.0980445 0.00621886
    outer loop
      vertex 114.564 16.6634 6
      vertex 114.552 16.7342 3
      vertex 114.545 16.6671 3
    endloop
  endfacet
  facet normal -0.995164 0.0980343 0.00621862
    outer loop
      vertex 114.552 16.7342 3
      vertex 114.564 16.6634 6
      vertex 114.578 16.811 6
    endloop
  endfacet
  facet normal -0.0980124 0.995166 0.00621971
    outer loop
      vertex 113.5 15.8094 3
      vertex 113.564 15.7969 6
      vertex 113.641 15.8232 3
    endloop
  endfacet
  facet normal -0.098019 0.995165 0.00621985
    outer loop
      vertex 113.564 15.7969 6
      vertex 113.5 15.8094 3
      vertex 113.5 15.7906 6
    endloop
  endfacet
  facet normal 0.995163 -0.0980445 0.00621879
    outer loop
      vertex 112.436 17.0865 6
      vertex 112.448 17.0158 3
      vertex 112.455 17.0829 3
    endloop
  endfacet
  facet normal 0.995163 -0.0980355 0.00621859
    outer loop
      vertex 112.448 17.0158 3
      vertex 112.436 17.0865 6
      vertex 112.422 16.939 6
    endloop
  endfacet
  facet normal -0.956918 -0.290292 0.00621869
    outer loop
      vertex 114.526 17.1474 3
      vertex 114.564 17.0865 6
      vertex 114.521 17.2284 6
    endloop
  endfacet
  facet normal -0.956918 -0.290291 0.00621871
    outer loop
      vertex 114.564 17.0865 6
      vertex 114.526 17.1474 3
      vertex 114.545 17.0829 3
    endloop
  endfacet
  facet normal -0.956921 0.290283 0.0062189
    outer loop
      vertex 114.526 16.6026 3
      vertex 114.564 16.6634 6
      vertex 114.545 16.6671 3
    endloop
  endfacet
  facet normal -0.956917 0.290295 0.0062186
    outer loop
      vertex 114.564 16.6634 6
      vertex 114.526 16.6026 3
      vertex 114.521 16.5216 6
    endloop
  endfacet
  facet normal -0.290276 0.956923 0.00621936
    outer loop
      vertex 113.908 15.8905 3
      vertex 113.853 15.8545 6
      vertex 113.915 15.8732 6
    endloop
  endfacet
  facet normal -0.290278 0.956922 0.00621933
    outer loop
      vertex 113.853 15.8545 6
      vertex 113.908 15.8905 3
      vertex 113.772 15.8494 3
    endloop
  endfacet
  facet normal 0.634384 0.772993 0.00622023
    outer loop
      vertex 112.746 16.1215 3
      vertex 112.783 16.0674 6
      vertex 112.856 16.0317 3
    endloop
  endfacet
  facet normal 0.634391 0.772988 0.00622007
    outer loop
      vertex 112.783 16.0674 6
      vertex 112.746 16.1215 3
      vertex 112.733 16.1082 6
    endloop
  endfacet
  facet normal 0.773017 0.634355 0.00622116
    outer loop
      vertex 112.598 16.2726 6
      vertex 112.657 16.2309 3
      vertex 112.614 16.283 3
    endloop
  endfacet
  facet normal 0.773001 0.634375 0.00622056
    outer loop
      vertex 112.657 16.2309 3
      vertex 112.598 16.2726 6
      vertex 112.692 16.158 6
    endloop
  endfacet
  facet normal 0.471365 0.881917 0.00621916
    outer loop
      vertex 113.092 15.8905 3
      vertex 113.028 15.9035 6
      vertex 113.085 15.8732 6
    endloop
  endfacet
  facet normal 0.471386 0.881905 0.00621967
    outer loop
      vertex 113.028 15.9035 6
      vertex 113.092 15.8905 3
      vertex 112.967 15.9572 3
    endloop
  endfacet
  facet normal 0.956932 -0.290245 0.00621982
    outer loop
      vertex 112.436 17.0865 6
      vertex 112.474 17.1474 3
      vertex 112.479 17.2284 6
    endloop
  endfacet
  facet normal 0.956918 -0.290291 0.00621871
    outer loop
      vertex 112.474 17.1474 3
      vertex 112.436 17.0865 6
      vertex 112.455 17.0829 3
    endloop
  endfacet
  facet normal 0.29029 -0.956919 0.00621937
    outer loop
      vertex 113.092 17.8595 3
      vertex 113.147 17.8955 6
      vertex 113.085 17.8768 6
    endloop
  endfacet
  facet normal 0.290271 -0.956924 0.00621977
    outer loop
      vertex 113.147 17.8955 6
      vertex 113.092 17.8595 3
      vertex 113.228 17.9006 3
    endloop
  endfacet
  facet normal -0.634384 -0.772993 0.00622073
    outer loop
      vertex 114.254 17.6285 3
      vertex 114.217 17.6826 6
      vertex 114.144 17.7183 3
    endloop
  endfacet
  facet normal -0.634408 -0.772973 0.00622008
    outer loop
      vertex 114.217 17.6826 6
      vertex 114.254 17.6285 3
      vertex 114.267 17.6418 6
    endloop
  endfacet
  facet normal -0.773029 -0.634341 0.00622012
    outer loop
      vertex 114.254 17.6285 3
      vertex 114.308 17.592 6
      vertex 114.267 17.6418 6
    endloop
  endfacet
  facet normal -0.772993 -0.634384 0.00621894
    outer loop
      vertex 114.308 17.592 6
      vertex 114.254 17.6285 3
      vertex 114.343 17.5191 3
    endloop
  endfacet
  facet normal -0.995163 -0.0980445 0.00621879
    outer loop
      vertex 114.552 17.0158 3
      vertex 114.564 17.0865 6
      vertex 114.545 17.0829 3
    endloop
  endfacet
  facet normal -0.995163 -0.0980355 0.00621859
    outer loop
      vertex 114.564 17.0865 6
      vertex 114.552 17.0158 3
      vertex 114.578 16.939 6
    endloop
  endfacet
  facet normal -0.772993 0.634384 0.00621894
    outer loop
      vertex 114.254 16.1215 3
      vertex 114.308 16.158 6
      vertex 114.343 16.2309 3
    endloop
  endfacet
  facet normal -0.773029 0.634341 0.00622012
    outer loop
      vertex 114.308 16.158 6
      vertex 114.254 16.1215 3
      vertex 114.267 16.1082 6
    endloop
  endfacet
  facet normal -0.956911 0.290316 0.00621917
    outer loop
      vertex 114.485 16.4672 3
      vertex 114.521 16.5216 6
      vertex 114.526 16.6026 3
    endloop
  endfacet
  facet normal -0.956935 0.290236 0.00622092
    outer loop
      vertex 114.521 16.5216 6
      vertex 114.485 16.4672 3
      vertex 114.502 16.46 6
    endloop
  endfacet
  facet normal -0.634391 0.772988 0.00622007
    outer loop
      vertex 114.254 16.1215 3
      vertex 114.217 16.0674 6
      vertex 114.267 16.1082 6
    endloop
  endfacet
  facet normal -0.634384 0.772993 0.00622023
    outer loop
      vertex 114.217 16.0674 6
      vertex 114.254 16.1215 3
      vertex 114.144 16.0317 3
    endloop
  endfacet
  facet normal 0.881905 0.471386 0.00622023
    outer loop
      vertex 112.598 16.2726 6
      vertex 112.582 16.3424 3
      vertex 112.528 16.4033 6
    endloop
  endfacet
  facet normal 0.881884 0.471425 0.00622127
    outer loop
      vertex 112.582 16.3424 3
      vertex 112.598 16.2726 6
      vertex 112.614 16.283 3
    endloop
  endfacet
  facet normal 0.956926 0.290267 0.00622024
    outer loop
      vertex 112.479 16.5216 6
      vertex 112.515 16.4672 3
      vertex 112.474 16.6026 3
    endloop
  endfacet
  facet normal 0.956902 0.290344 0.00621856
    outer loop
      vertex 112.515 16.4672 3
      vertex 112.479 16.5216 6
      vertex 112.498 16.46 6
    endloop
  endfacet
  facet normal 0.098019 0.995165 0.00621985
    outer loop
      vertex 113.5 15.8094 3
      vertex 113.436 15.7969 6
      vertex 113.5 15.7906 6
    endloop
  endfacet
  facet normal 0.0980124 0.995166 0.00621971
    outer loop
      vertex 113.436 15.7969 6
      vertex 113.5 15.8094 3
      vertex 113.359 15.8232 3
    endloop
  endfacet
  facet normal 0.77297 -0.634412 0.00622017
    outer loop
      vertex 112.692 17.592 6
      vertex 112.746 17.6285 3
      vertex 112.733 17.6418 6
    endloop
  endfacet
  facet normal 0.772993 -0.634384 0.0062209
    outer loop
      vertex 112.746 17.6285 3
      vertex 112.692 17.592 6
      vertex 112.657 17.5191 3
    endloop
  endfacet
  facet normal 0.956902 -0.290344 0.00621856
    outer loop
      vertex 112.479 17.2284 6
      vertex 112.515 17.2828 3
      vertex 112.498 17.29 6
    endloop
  endfacet
  facet normal 0.956927 -0.290263 0.00622033
    outer loop
      vertex 112.515 17.2828 3
      vertex 112.479 17.2284 6
      vertex 112.474 17.1474 3
    endloop
  endfacet
  facet normal 0.634408 -0.772973 0.00622008
    outer loop
      vertex 112.746 17.6285 3
      vertex 112.783 17.6826 6
      vertex 112.733 17.6418 6
    endloop
  endfacet
  facet normal 0.634384 -0.772993 0.00622073
    outer loop
      vertex 112.783 17.6826 6
      vertex 112.746 17.6285 3
      vertex 112.856 17.7183 3
    endloop
  endfacet
  facet normal -0.0980215 -0.995165 0.00621947
    outer loop
      vertex 113.641 17.9268 3
      vertex 113.712 17.9385 6
      vertex 113.564 17.9531 6
    endloop
  endfacet
  facet normal -0.0980164 -0.995165 0.00621935
    outer loop
      vertex 113.712 17.9385 6
      vertex 113.641 17.9268 3
      vertex 113.708 17.9201 3
    endloop
  endfacet
  facet normal -0.290271 -0.956924 0.00621977
    outer loop
      vertex 113.908 17.8595 3
      vertex 113.853 17.8955 6
      vertex 113.772 17.9006 3
    endloop
  endfacet
  facet normal -0.29029 -0.956919 0.00621937
    outer loop
      vertex 113.853 17.8955 6
      vertex 113.908 17.8595 3
      vertex 113.915 17.8768 6
    endloop
  endfacet
  facet normal -0.290291 -0.956918 0.00621913
    outer loop
      vertex 113.772 17.9006 3
      vertex 113.712 17.9385 6
      vertex 113.708 17.9201 3
    endloop
  endfacet
  facet normal -0.290268 -0.956925 0.00621968
    outer loop
      vertex 113.712 17.9385 6
      vertex 113.772 17.9006 3
      vertex 113.853 17.8955 6
    endloop
  endfacet
  facet normal -0.772976 -0.634405 0.00621965
    outer loop
      vertex 114.343 17.5191 3
      vertex 114.402 17.4774 6
      vertex 114.308 17.592 6
    endloop
  endfacet
  facet normal -0.773006 -0.634369 0.00622074
    outer loop
      vertex 114.402 17.4774 6
      vertex 114.343 17.5191 3
      vertex 114.386 17.467 3
    endloop
  endfacet
  facet normal -0.99517 0.0979692 0.00621829
    outer loop
      vertex 114.566 16.875 3
      vertex 114.578 16.811 6
      vertex 114.584 16.875 6
    endloop
  endfacet
  facet normal -0.995166 0.0980124 0.0062192
    outer loop
      vertex 114.578 16.811 6
      vertex 114.566 16.875 3
      vertex 114.552 16.7342 3
    endloop
  endfacet
  facet normal -0.881922 0.471355 0.00622089
    outer loop
      vertex 114.485 16.4672 3
      vertex 114.472 16.4033 6
      vertex 114.502 16.46 6
    endloop
  endfacet
  facet normal -0.881919 0.47136 0.00622101
    outer loop
      vertex 114.472 16.4033 6
      vertex 114.485 16.4672 3
      vertex 114.418 16.3424 3
    endloop
  endfacet
  facet normal -0.29028 0.956922 0.00621939
    outer loop
      vertex 113.772 15.8494 3
      vertex 113.712 15.8115 6
      vertex 113.853 15.8545 6
    endloop
  endfacet
  facet normal -0.290278 0.956922 0.00621944
    outer loop
      vertex 113.712 15.8115 6
      vertex 113.772 15.8494 3
      vertex 113.708 15.8299 3
    endloop
  endfacet
  facet normal -0.0980164 0.995165 0.00621966
    outer loop
      vertex 113.641 15.8232 3
      vertex 113.712 15.8115 6
      vertex 113.708 15.8299 3
    endloop
  endfacet
  facet normal -0.0980152 0.995165 0.00621963
    outer loop
      vertex 113.712 15.8115 6
      vertex 113.641 15.8232 3
      vertex 113.564 15.7969 6
    endloop
  endfacet
  facet normal -0.471416 0.881889 0.00622018
    outer loop
      vertex 114.033 15.9572 3
      vertex 114.102 15.9734 6
      vertex 114.092 15.989 3
    endloop
  endfacet
  facet normal -0.471391 0.881902 0.00621953
    outer loop
      vertex 114.102 15.9734 6
      vertex 114.033 15.9572 3
      vertex 113.972 15.9035 6
    endloop
  endfacet
  facet normal -0.634376 0.773 0.00621994
    outer loop
      vertex 114.144 16.0317 3
      vertex 114.102 15.9734 6
      vertex 114.217 16.0674 6
    endloop
  endfacet
  facet normal -0.634358 0.773015 0.00622049
    outer loop
      vertex 114.102 15.9734 6
      vertex 114.144 16.0317 3
      vertex 114.092 15.989 3
    endloop
  endfacet
  facet normal 0.956921 0.290283 0.0062189
    outer loop
      vertex 112.436 16.6634 6
      vertex 112.474 16.6026 3
      vertex 112.455 16.6671 3
    endloop
  endfacet
  facet normal 0.956931 0.290248 0.00621974
    outer loop
      vertex 112.474 16.6026 3
      vertex 112.436 16.6634 6
      vertex 112.479 16.5216 6
    endloop
  endfacet
  facet normal 0.995164 0.0980343 0.00621862
    outer loop
      vertex 112.436 16.6634 6
      vertex 112.448 16.7342 3
      vertex 112.422 16.811 6
    endloop
  endfacet
  facet normal 0.995163 0.0980445 0.00621886
    outer loop
      vertex 112.448 16.7342 3
      vertex 112.436 16.6634 6
      vertex 112.455 16.6671 3
    endloop
  endfacet
  facet normal 0.471391 0.881902 0.00621953
    outer loop
      vertex 112.967 15.9572 3
      vertex 112.898 15.9734 6
      vertex 113.028 15.9035 6
    endloop
  endfacet
  facet normal 0.471369 0.881914 0.00621895
    outer loop
      vertex 112.898 15.9734 6
      vertex 112.967 15.9572 3
      vertex 112.908 15.989 3
    endloop
  endfacet
  facet normal 0.634413 0.772969 0.00621883
    outer loop
      vertex 112.856 16.0317 3
      vertex 112.898 15.9734 6
      vertex 112.908 15.989 3
    endloop
  endfacet
  facet normal 0.634376 0.773 0.00621994
    outer loop
      vertex 112.898 15.9734 6
      vertex 112.856 16.0317 3
      vertex 112.783 16.0674 6
    endloop
  endfacet
  facet normal 0.290278 0.956922 0.00621944
    outer loop
      vertex 113.228 15.8494 3
      vertex 113.288 15.8115 6
      vertex 113.292 15.8299 3
    endloop
  endfacet
  facet normal 0.29028 0.956922 0.00621939
    outer loop
      vertex 113.288 15.8115 6
      vertex 113.228 15.8494 3
      vertex 113.147 15.8545 6
    endloop
  endfacet
  facet normal 0.0980152 0.995165 0.00621963
    outer loop
      vertex 113.359 15.8232 3
      vertex 113.288 15.8115 6
      vertex 113.436 15.7969 6
    endloop
  endfacet
  facet normal 0.0980164 0.995165 0.00621966
    outer loop
      vertex 113.288 15.8115 6
      vertex 113.359 15.8232 3
      vertex 113.292 15.8299 3
    endloop
  endfacet
  facet normal 0.99517 -0.0979692 0.00621829
    outer loop
      vertex 112.434 16.875 3
      vertex 112.422 16.939 6
      vertex 112.416 16.875 6
    endloop
  endfacet
  facet normal 0.995166 -0.0980124 0.0062192
    outer loop
      vertex 112.422 16.939 6
      vertex 112.434 16.875 3
      vertex 112.448 17.0158 3
    endloop
  endfacet
  facet normal 0.881922 -0.471355 0.00621865
    outer loop
      vertex 112.515 17.2828 3
      vertex 112.528 17.3467 6
      vertex 112.498 17.29 6
    endloop
  endfacet
  facet normal 0.881894 -0.471407 0.00621989
    outer loop
      vertex 112.528 17.3467 6
      vertex 112.515 17.2828 3
      vertex 112.582 17.4076 3
    endloop
  endfacet
  facet normal 0.290268 -0.956925 0.00621968
    outer loop
      vertex 113.228 17.9006 3
      vertex 113.288 17.9385 6
      vertex 113.147 17.8955 6
    endloop
  endfacet
  facet normal 0.290291 -0.956918 0.00621913
    outer loop
      vertex 113.288 17.9385 6
      vertex 113.228 17.9006 3
      vertex 113.292 17.9201 3
    endloop
  endfacet
  facet normal 0.0980164 -0.995165 0.00621935
    outer loop
      vertex 113.359 17.9268 3
      vertex 113.288 17.9385 6
      vertex 113.292 17.9201 3
    endloop
  endfacet
  facet normal 0.0980215 -0.995165 0.00621947
    outer loop
      vertex 113.288 17.9385 6
      vertex 113.359 17.9268 3
      vertex 113.436 17.9531 6
    endloop
  endfacet
  facet normal 0.47138 -0.881909 0.00621952
    outer loop
      vertex 112.967 17.7928 3
      vertex 112.898 17.7766 6
      vertex 112.908 17.761 3
    endloop
  endfacet
  facet normal 0.471391 -0.881902 0.00621981
    outer loop
      vertex 112.898 17.7766 6
      vertex 112.967 17.7928 3
      vertex 113.028 17.8465 6
    endloop
  endfacet
  facet normal 0.634376 -0.773 0.00622043
    outer loop
      vertex 112.856 17.7183 3
      vertex 112.898 17.7766 6
      vertex 112.783 17.6826 6
    endloop
  endfacet
  facet normal 0.634413 -0.772969 0.00621932
    outer loop
      vertex 112.898 17.7766 6
      vertex 112.856 17.7183 3
      vertex 112.908 17.761 3
    endloop
  endfacet
  facet normal -0.471353 -0.881923 0.00621917
    outer loop
      vertex 113.908 17.8595 3
      vertex 113.972 17.8465 6
      vertex 113.915 17.8768 6
    endloop
  endfacet
  facet normal -0.471386 -0.881905 0.00621995
    outer loop
      vertex 113.972 17.8465 6
      vertex 113.908 17.8595 3
      vertex 114.033 17.7928 3
    endloop
  endfacet
  facet normal -0.0980043 -0.995167 0.00621954
    outer loop
      vertex 113.5 17.9406 3
      vertex 113.564 17.9531 6
      vertex 113.5 17.9594 6
    endloop
  endfacet
  facet normal -0.0980124 -0.995166 0.00621971
    outer loop
      vertex 113.564 17.9531 6
      vertex 113.5 17.9406 3
      vertex 113.641 17.9268 3
    endloop
  endfacet
  facet normal -0.88189 -0.471413 0.00622096
    outer loop
      vertex 114.418 17.4076 3
      vertex 114.402 17.4774 6
      vertex 114.386 17.467 3
    endloop
  endfacet
  facet normal -0.881902 -0.471391 0.00622037
    outer loop
      vertex 114.402 17.4774 6
      vertex 114.418 17.4076 3
      vertex 114.472 17.3467 6
    endloop
  endfacet
  facet normal -0.881884 0.471425 0.00622127
    outer loop
      vertex 114.402 16.2726 6
      vertex 114.418 16.3424 3
      vertex 114.386 16.283 3
    endloop
  endfacet
  facet normal -0.881905 0.471386 0.00622023
    outer loop
      vertex 114.418 16.3424 3
      vertex 114.402 16.2726 6
      vertex 114.472 16.4033 6
    endloop
  endfacet
  facet normal -0.773017 0.634355 0.00622116
    outer loop
      vertex 114.343 16.2309 3
      vertex 114.402 16.2726 6
      vertex 114.386 16.283 3
    endloop
  endfacet
  facet normal -0.772976 0.634405 0.00621965
    outer loop
      vertex 114.402 16.2726 6
      vertex 114.343 16.2309 3
      vertex 114.308 16.158 6
    endloop
  endfacet
  facet normal -0.471386 0.881905 0.00621967
    outer loop
      vertex 113.908 15.8905 3
      vertex 113.972 15.9035 6
      vertex 114.033 15.9572 3
    endloop
  endfacet
  facet normal -0.471365 0.881917 0.00621916
    outer loop
      vertex 113.972 15.9035 6
      vertex 113.908 15.8905 3
      vertex 113.915 15.8732 6
    endloop
  endfacet
  facet normal 0.772993 0.634384 0.0062209
    outer loop
      vertex 112.692 16.158 6
      vertex 112.746 16.1215 3
      vertex 112.657 16.2309 3
    endloop
  endfacet
  facet normal 0.77297 0.634412 0.00622017
    outer loop
      vertex 112.746 16.1215 3
      vertex 112.692 16.158 6
      vertex 112.733 16.1082 6
    endloop
  endfacet
  facet normal 0.290278 0.956922 0.00621933
    outer loop
      vertex 113.092 15.8905 3
      vertex 113.147 15.8545 6
      vertex 113.228 15.8494 3
    endloop
  endfacet
  facet normal 0.290276 0.956923 0.00621936
    outer loop
      vertex 113.147 15.8545 6
      vertex 113.092 15.8905 3
      vertex 113.085 15.8732 6
    endloop
  endfacet
  facet normal 0.88189 -0.471413 0.00622096
    outer loop
      vertex 112.598 17.4774 6
      vertex 112.582 17.4076 3
      vertex 112.614 17.467 3
    endloop
  endfacet
  facet normal 0.881902 -0.471391 0.00622037
    outer loop
      vertex 112.582 17.4076 3
      vertex 112.598 17.4774 6
      vertex 112.528 17.3467 6
    endloop
  endfacet
  facet normal 0.773001 -0.634375 0.00622056
    outer loop
      vertex 112.598 17.4774 6
      vertex 112.657 17.5191 3
      vertex 112.692 17.592 6
    endloop
  endfacet
  facet normal 0.773006 -0.634369 0.00622074
    outer loop
      vertex 112.657 17.5191 3
      vertex 112.598 17.4774 6
      vertex 112.614 17.467 3
    endloop
  endfacet
  facet normal 0.471386 -0.881905 0.00621995
    outer loop
      vertex 113.092 17.8595 3
      vertex 113.028 17.8465 6
      vertex 112.967 17.7928 3
    endloop
  endfacet
  facet normal 0.471353 -0.881923 0.00621917
    outer loop
      vertex 113.028 17.8465 6
      vertex 113.092 17.8595 3
      vertex 113.085 17.8768 6
    endloop
  endfacet
  facet normal -0.471391 -0.881902 0.00621981
    outer loop
      vertex 114.033 17.7928 3
      vertex 114.102 17.7766 6
      vertex 113.972 17.8465 6
    endloop
  endfacet
  facet normal -0.471427 -0.881883 0.00622075
    outer loop
      vertex 114.102 17.7766 6
      vertex 114.033 17.7928 3
      vertex 114.092 17.761 3
    endloop
  endfacet
  facet normal -0.634358 -0.773015 0.00622098
    outer loop
      vertex 114.144 17.7183 3
      vertex 114.102 17.7766 6
      vertex 114.092 17.761 3
    endloop
  endfacet
  facet normal -0.634376 -0.773 0.00622043
    outer loop
      vertex 114.102 17.7766 6
      vertex 114.144 17.7183 3
      vertex 114.217 17.6826 6
    endloop
  endfacet
  facet normal -0.881916 -0.471365 0.00622114
    outer loop
      vertex 114.485 17.2828 3
      vertex 114.472 17.3467 6
      vertex 114.418 17.4076 3
    endloop
  endfacet
  facet normal -0.881922 -0.471355 0.00622089
    outer loop
      vertex 114.472 17.3467 6
      vertex 114.485 17.2828 3
      vertex 114.502 17.29 6
    endloop
  endfacet
  facet normal -0.956935 -0.290236 0.00622092
    outer loop
      vertex 114.485 17.2828 3
      vertex 114.521 17.2284 6
      vertex 114.502 17.29 6
    endloop
  endfacet
  facet normal -0.956912 -0.290312 0.00621925
    outer loop
      vertex 114.521 17.2284 6
      vertex 114.485 17.2828 3
      vertex 114.526 17.1474 3
    endloop
  endfacet
  facet normal 0.881922 0.471355 0.00621865
    outer loop
      vertex 112.528 16.4033 6
      vertex 112.515 16.4672 3
      vertex 112.498 16.46 6
    endloop
  endfacet
  facet normal 0.881897 0.471402 0.00621976
    outer loop
      vertex 112.515 16.4672 3
      vertex 112.528 16.4033 6
      vertex 112.582 16.3424 3
    endloop
  endfacet
  facet normal -0.995166 -0.0980124 0.00621667
    outer loop
      vertex 133.566 16.875 3
      vertex 133.578 16.939 6
      vertex 133.552 17.0158 3
    endloop
  endfacet
  facet normal -0.995147 -0.0982041 0.00622068
    outer loop
      vertex 133.578 16.939 6
      vertex 133.566 16.875 3
      vertex 133.584 16.875 6
    endloop
  endfacet
  facet normal 0.995147 0.0982041 0.00622068
    outer loop
      vertex 131.422 16.811 6
      vertex 131.434 16.875 3
      vertex 131.416 16.875 6
    endloop
  endfacet
  facet normal 0.995166 0.0980124 0.00621667
    outer loop
      vertex 131.434 16.875 3
      vertex 131.422 16.811 6
      vertex 131.448 16.7342 3
    endloop
  endfacet
  facet normal 0.0980072 -0.995166 0.0062196
    outer loop
      vertex 132.5 17.9406 3
      vertex 132.436 17.9531 6
      vertex 132.359 17.9268 3
    endloop
  endfacet
  facet normal 0.0980043 -0.995167 0.00621954
    outer loop
      vertex 132.436 17.9531 6
      vertex 132.5 17.9406 3
      vertex 132.5 17.9594 6
    endloop
  endfacet
  facet normal -0.995163 0.0980445 0.00621886
    outer loop
      vertex 133.564 16.6634 6
      vertex 133.552 16.7342 3
      vertex 133.545 16.6671 3
    endloop
  endfacet
  facet normal -0.995169 0.0979833 0.00621744
    outer loop
      vertex 133.552 16.7342 3
      vertex 133.564 16.6634 6
      vertex 133.578 16.811 6
    endloop
  endfacet
  facet normal -0.0980177 0.995165 0.00621982
    outer loop
      vertex 132.5 15.8094 3
      vertex 132.564 15.7969 6
      vertex 132.641 15.8232 3
    endloop
  endfacet
  facet normal -0.098019 0.995165 0.00621985
    outer loop
      vertex 132.564 15.7969 6
      vertex 132.5 15.8094 3
      vertex 132.5 15.7906 6
    endloop
  endfacet
  facet normal 0.995163 -0.0980445 0.00621879
    outer loop
      vertex 131.436 17.0865 6
      vertex 131.448 17.0158 3
      vertex 131.455 17.0829 3
    endloop
  endfacet
  facet normal 0.995169 -0.0979846 0.00621741
    outer loop
      vertex 131.448 17.0158 3
      vertex 131.436 17.0865 6
      vertex 131.422 16.939 6
    endloop
  endfacet
  facet normal -0.956932 -0.290245 0.00621982
    outer loop
      vertex 133.526 17.1474 3
      vertex 133.564 17.0865 6
      vertex 133.521 17.2284 6
    endloop
  endfacet
  facet normal -0.956918 -0.290291 0.00621871
    outer loop
      vertex 133.564 17.0865 6
      vertex 133.526 17.1474 3
      vertex 133.545 17.0829 3
    endloop
  endfacet
  facet normal -0.956921 0.290283 0.0062189
    outer loop
      vertex 133.526 16.6026 3
      vertex 133.564 16.6634 6
      vertex 133.545 16.6671 3
    endloop
  endfacet
  facet normal -0.956931 0.290248 0.00621974
    outer loop
      vertex 133.564 16.6634 6
      vertex 133.526 16.6026 3
      vertex 133.521 16.5216 6
    endloop
  endfacet
  facet normal -0.290276 0.956923 0.00622084
    outer loop
      vertex 132.908 15.8905 3
      vertex 132.853 15.8545 6
      vertex 132.915 15.8732 6
    endloop
  endfacet
  facet normal -0.290308 0.956913 0.00622016
    outer loop
      vertex 132.853 15.8545 6
      vertex 132.908 15.8905 3
      vertex 132.772 15.8494 3
    endloop
  endfacet
  facet normal 0.634384 0.772993 0.00621862
    outer loop
      vertex 131.746 16.1215 3
      vertex 131.783 16.0674 6
      vertex 131.856 16.0317 3
    endloop
  endfacet
  facet normal 0.634333 0.773035 0.00622002
    outer loop
      vertex 131.783 16.0674 6
      vertex 131.746 16.1215 3
      vertex 131.733 16.1082 6
    endloop
  endfacet
  facet normal 0.773073 0.634287 0.00622121
    outer loop
      vertex 131.598 16.2726 6
      vertex 131.657 16.2309 3
      vertex 131.614 16.283 3
    endloop
  endfacet
  facet normal 0.772976 0.634405 0.00621768
    outer loop
      vertex 131.657 16.2309 3
      vertex 131.598 16.2726 6
      vertex 131.692 16.158 6
    endloop
  endfacet
  facet normal 0.471463 0.881864 0.00622149
    outer loop
      vertex 132.092 15.8905 3
      vertex 132.028 15.9035 6
      vertex 132.085 15.8732 6
    endloop
  endfacet
  facet normal 0.471386 0.881905 0.00621967
    outer loop
      vertex 132.028 15.9035 6
      vertex 132.092 15.8905 3
      vertex 131.967 15.9572 3
    endloop
  endfacet
  facet normal 0.956932 -0.290245 0.00621982
    outer loop
      vertex 131.436 17.0865 6
      vertex 131.474 17.1474 3
      vertex 131.479 17.2284 6
    endloop
  endfacet
  facet normal 0.956918 -0.290291 0.00621871
    outer loop
      vertex 131.474 17.1474 3
      vertex 131.436 17.0865 6
      vertex 131.455 17.0829 3
    endloop
  endfacet
  facet normal 0.29029 -0.956919 0.00622085
    outer loop
      vertex 132.092 17.8595 3
      vertex 132.147 17.8955 6
      vertex 132.085 17.8768 6
    endloop
  endfacet
  facet normal 0.290301 -0.956915 0.00622059
    outer loop
      vertex 132.147 17.8955 6
      vertex 132.092 17.8595 3
      vertex 132.228 17.9006 3
    endloop
  endfacet
  facet normal -0.634384 -0.772993 0.00621911
    outer loop
      vertex 133.254 17.6285 3
      vertex 133.217 17.6826 6
      vertex 133.144 17.7183 3
    endloop
  endfacet
  facet normal -0.63435 -0.773021 0.00622004
    outer loop
      vertex 133.217 17.6826 6
      vertex 133.254 17.6285 3
      vertex 133.267 17.6418 6
    endloop
  endfacet
  facet normal -0.773029 -0.634341 0.00622012
    outer loop
      vertex 133.254 17.6285 3
      vertex 133.308 17.592 6
      vertex 133.267 17.6418 6
    endloop
  endfacet
  facet normal -0.772966 -0.634417 0.00621807
    outer loop
      vertex 133.308 17.592 6
      vertex 133.254 17.6285 3
      vertex 133.343 17.5191 3
    endloop
  endfacet
  facet normal -0.995163 -0.0980445 0.00621879
    outer loop
      vertex 133.552 17.0158 3
      vertex 133.564 17.0865 6
      vertex 133.545 17.0829 3
    endloop
  endfacet
  facet normal -0.995169 -0.0979846 0.00621741
    outer loop
      vertex 133.564 17.0865 6
      vertex 133.552 17.0158 3
      vertex 133.578 16.939 6
    endloop
  endfacet
  facet normal -0.772966 0.634417 0.00621807
    outer loop
      vertex 133.254 16.1215 3
      vertex 133.308 16.158 6
      vertex 133.343 16.2309 3
    endloop
  endfacet
  facet normal -0.773029 0.634341 0.00622012
    outer loop
      vertex 133.308 16.158 6
      vertex 133.254 16.1215 3
      vertex 133.267 16.1082 6
    endloop
  endfacet
  facet normal -0.956926 0.290267 0.00622024
    outer loop
      vertex 133.485 16.4672 3
      vertex 133.521 16.5216 6
      vertex 133.526 16.6026 3
    endloop
  endfacet
  facet normal -0.956902 0.290344 0.00621856
    outer loop
      vertex 133.521 16.5216 6
      vertex 133.485 16.4672 3
      vertex 133.502 16.46 6
    endloop
  endfacet
  facet normal -0.634333 0.773035 0.00622002
    outer loop
      vertex 133.254 16.1215 3
      vertex 133.217 16.0674 6
      vertex 133.267 16.1082 6
    endloop
  endfacet
  facet normal -0.634384 0.772993 0.00621862
    outer loop
      vertex 133.217 16.0674 6
      vertex 133.254 16.1215 3
      vertex 133.144 16.0317 3
    endloop
  endfacet
  facet normal 0.881905 0.471386 0.00622023
    outer loop
      vertex 131.598 16.2726 6
      vertex 131.582 16.3424 3
      vertex 131.528 16.4033 6
    endloop
  endfacet
  facet normal 0.881884 0.471425 0.00622127
    outer loop
      vertex 131.582 16.3424 3
      vertex 131.598 16.2726 6
      vertex 131.614 16.283 3
    endloop
  endfacet
  facet normal 0.956926 0.290267 0.00622024
    outer loop
      vertex 131.479 16.5216 6
      vertex 131.515 16.4672 3
      vertex 131.474 16.6026 3
    endloop
  endfacet
  facet normal 0.956902 0.290344 0.00621856
    outer loop
      vertex 131.515 16.4672 3
      vertex 131.479 16.5216 6
      vertex 131.498 16.46 6
    endloop
  endfacet
  facet normal 0.098019 0.995165 0.00621985
    outer loop
      vertex 132.5 15.8094 3
      vertex 132.436 15.7969 6
      vertex 132.5 15.7906 6
    endloop
  endfacet
  facet normal 0.0980072 0.995166 0.0062196
    outer loop
      vertex 132.436 15.7969 6
      vertex 132.5 15.8094 3
      vertex 132.359 15.8232 3
    endloop
  endfacet
  facet normal 0.773029 -0.634341 0.00622012
    outer loop
      vertex 131.692 17.592 6
      vertex 131.746 17.6285 3
      vertex 131.733 17.6418 6
    endloop
  endfacet
  facet normal 0.772966 -0.634417 0.00621807
    outer loop
      vertex 131.746 17.6285 3
      vertex 131.692 17.592 6
      vertex 131.657 17.5191 3
    endloop
  endfacet
  facet normal 0.956902 -0.290344 0.00621856
    outer loop
      vertex 131.479 17.2284 6
      vertex 131.515 17.2828 3
      vertex 131.498 17.29 6
    endloop
  endfacet
  facet normal 0.956927 -0.290263 0.00622033
    outer loop
      vertex 131.515 17.2828 3
      vertex 131.479 17.2284 6
      vertex 131.474 17.1474 3
    endloop
  endfacet
  facet normal 0.63435 -0.773021 0.00622004
    outer loop
      vertex 131.746 17.6285 3
      vertex 131.783 17.6826 6
      vertex 131.733 17.6418 6
    endloop
  endfacet
  facet normal 0.634384 -0.772993 0.00621911
    outer loop
      vertex 131.783 17.6826 6
      vertex 131.746 17.6285 3
      vertex 131.856 17.7183 3
    endloop
  endfacet
  facet normal -0.0980215 -0.995165 0.00621972
    outer loop
      vertex 132.641 17.9268 3
      vertex 132.712 17.9385 6
      vertex 132.564 17.9531 6
    endloop
  endfacet
  facet normal -0.0980164 -0.995165 0.0062196
    outer loop
      vertex 132.712 17.9385 6
      vertex 132.641 17.9268 3
      vertex 132.708 17.9201 3
    endloop
  endfacet
  facet normal -0.290301 -0.956915 0.00622059
    outer loop
      vertex 132.908 17.8595 3
      vertex 132.853 17.8955 6
      vertex 132.772 17.9006 3
    endloop
  endfacet
  facet normal -0.29029 -0.956919 0.00622085
    outer loop
      vertex 132.853 17.8955 6
      vertex 132.908 17.8595 3
      vertex 132.915 17.8768 6
    endloop
  endfacet
  facet normal -0.290228 -0.956937 0.00621991
    outer loop
      vertex 132.772 17.9006 3
      vertex 132.712 17.9385 6
      vertex 132.708 17.9201 3
    endloop
  endfacet
  facet normal -0.290254 -0.956929 0.00621928
    outer loop
      vertex 132.712 17.9385 6
      vertex 132.772 17.9006 3
      vertex 132.853 17.8955 6
    endloop
  endfacet
  facet normal -0.772976 -0.634405 0.00621768
    outer loop
      vertex 133.343 17.5191 3
      vertex 133.402 17.4774 6
      vertex 133.308 17.592 6
    endloop
  endfacet
  facet normal -0.773061 -0.634301 0.0062208
    outer loop
      vertex 133.402 17.4774 6
      vertex 133.343 17.5191 3
      vertex 133.386 17.467 3
    endloop
  endfacet
  facet normal -0.995147 0.0982041 0.00622068
    outer loop
      vertex 133.566 16.875 3
      vertex 133.578 16.811 6
      vertex 133.584 16.875 6
    endloop
  endfacet
  facet normal -0.995166 0.0980124 0.00621667
    outer loop
      vertex 133.578 16.811 6
      vertex 133.566 16.875 3
      vertex 133.552 16.7342 3
    endloop
  endfacet
  facet normal -0.881922 0.471355 0.00621865
    outer loop
      vertex 133.485 16.4672 3
      vertex 133.472 16.4033 6
      vertex 133.502 16.46 6
    endloop
  endfacet
  facet normal -0.881897 0.471402 0.00621976
    outer loop
      vertex 133.472 16.4033 6
      vertex 133.485 16.4672 3
      vertex 133.418 16.3424 3
    endloop
  endfacet
  facet normal -0.290266 0.956926 0.006219
    outer loop
      vertex 132.772 15.8494 3
      vertex 132.712 15.8115 6
      vertex 132.853 15.8545 6
    endloop
  endfacet
  facet normal -0.290215 0.956941 0.00622022
    outer loop
      vertex 132.712 15.8115 6
      vertex 132.772 15.8494 3
      vertex 132.708 15.8299 3
    endloop
  endfacet
  facet normal -0.0980164 0.995165 0.00621991
    outer loop
      vertex 132.641 15.8232 3
      vertex 132.712 15.8115 6
      vertex 132.708 15.8299 3
    endloop
  endfacet
  facet normal -0.0980152 0.995165 0.00621988
    outer loop
      vertex 132.712 15.8115 6
      vertex 132.641 15.8232 3
      vertex 132.564 15.7969 6
    endloop
  endfacet
  facet normal -0.471369 0.881914 0.00622015
    outer loop
      vertex 133.033 15.9572 3
      vertex 133.102 15.9734 6
      vertex 133.092 15.989 3
    endloop
  endfacet
  facet normal -0.47137 0.881914 0.00622017
    outer loop
      vertex 133.102 15.9734 6
      vertex 133.033 15.9572 3
      vertex 132.972 15.9035 6
    endloop
  endfacet
  facet normal -0.634401 0.772979 0.00621919
    outer loop
      vertex 133.144 16.0317 3
      vertex 133.102 15.9734 6
      vertex 133.217 16.0674 6
    endloop
  endfacet
  facet normal -0.634358 0.773015 0.00622049
    outer loop
      vertex 133.102 15.9734 6
      vertex 133.144 16.0317 3
      vertex 133.092 15.989 3
    endloop
  endfacet
  facet normal 0.956921 0.290283 0.0062189
    outer loop
      vertex 131.436 16.6634 6
      vertex 131.474 16.6026 3
      vertex 131.455 16.6671 3
    endloop
  endfacet
  facet normal 0.956931 0.290248 0.00621974
    outer loop
      vertex 131.474 16.6026 3
      vertex 131.436 16.6634 6
      vertex 131.479 16.5216 6
    endloop
  endfacet
  facet normal 0.995169 0.0979833 0.00621744
    outer loop
      vertex 131.436 16.6634 6
      vertex 131.448 16.7342 3
      vertex 131.422 16.811 6
    endloop
  endfacet
  facet normal 0.995163 0.0980445 0.00621886
    outer loop
      vertex 131.448 16.7342 3
      vertex 131.436 16.6634 6
      vertex 131.455 16.6671 3
    endloop
  endfacet
  facet normal 0.47137 0.881914 0.00622017
    outer loop
      vertex 131.967 15.9572 3
      vertex 131.898 15.9734 6
      vertex 132.028 15.9035 6
    endloop
  endfacet
  facet normal 0.471369 0.881914 0.00622015
    outer loop
      vertex 131.898 15.9734 6
      vertex 131.967 15.9572 3
      vertex 131.908 15.989 3
    endloop
  endfacet
  facet normal 0.634358 0.773015 0.00622049
    outer loop
      vertex 131.856 16.0317 3
      vertex 131.898 15.9734 6
      vertex 131.908 15.989 3
    endloop
  endfacet
  facet normal 0.634401 0.772979 0.00621919
    outer loop
      vertex 131.898 15.9734 6
      vertex 131.856 16.0317 3
      vertex 131.783 16.0674 6
    endloop
  endfacet
  facet normal 0.290278 0.956922 0.0062187
    outer loop
      vertex 132.228 15.8494 3
      vertex 132.288 15.8115 6
      vertex 132.292 15.8299 3
    endloop
  endfacet
  facet normal 0.290266 0.956926 0.006219
    outer loop
      vertex 132.288 15.8115 6
      vertex 132.228 15.8494 3
      vertex 132.147 15.8545 6
    endloop
  endfacet
  facet normal 0.0980152 0.995165 0.00621939
    outer loop
      vertex 132.359 15.8232 3
      vertex 132.288 15.8115 6
      vertex 132.436 15.7969 6
    endloop
  endfacet
  facet normal 0.0980164 0.995165 0.00621942
    outer loop
      vertex 132.288 15.8115 6
      vertex 132.359 15.8232 3
      vertex 132.292 15.8299 3
    endloop
  endfacet
  facet normal 0.995147 -0.0982041 0.00622068
    outer loop
      vertex 131.434 16.875 3
      vertex 131.422 16.939 6
      vertex 131.416 16.875 6
    endloop
  endfacet
  facet normal 0.995166 -0.0980124 0.00621667
    outer loop
      vertex 131.422 16.939 6
      vertex 131.434 16.875 3
      vertex 131.448 17.0158 3
    endloop
  endfacet
  facet normal 0.881922 -0.471355 0.00621865
    outer loop
      vertex 131.515 17.2828 3
      vertex 131.528 17.3467 6
      vertex 131.498 17.29 6
    endloop
  endfacet
  facet normal 0.881894 -0.471407 0.00621989
    outer loop
      vertex 131.528 17.3467 6
      vertex 131.515 17.2828 3
      vertex 131.582 17.4076 3
    endloop
  endfacet
  facet normal 0.290254 -0.956929 0.00621928
    outer loop
      vertex 132.228 17.9006 3
      vertex 132.288 17.9385 6
      vertex 132.147 17.8955 6
    endloop
  endfacet
  facet normal 0.290291 -0.956918 0.00621839
    outer loop
      vertex 132.288 17.9385 6
      vertex 132.228 17.9006 3
      vertex 132.292 17.9201 3
    endloop
  endfacet
  facet normal 0.0980164 -0.995165 0.0062191
    outer loop
      vertex 132.359 17.9268 3
      vertex 132.288 17.9385 6
      vertex 132.292 17.9201 3
    endloop
  endfacet
  facet normal 0.0980215 -0.995165 0.00621922
    outer loop
      vertex 132.288 17.9385 6
      vertex 132.359 17.9268 3
      vertex 132.436 17.9531 6
    endloop
  endfacet
  facet normal 0.47138 -0.881909 0.00622071
    outer loop
      vertex 131.967 17.7928 3
      vertex 131.898 17.7766 6
      vertex 131.908 17.761 3
    endloop
  endfacet
  facet normal 0.47137 -0.881914 0.00622045
    outer loop
      vertex 131.898 17.7766 6
      vertex 131.967 17.7928 3
      vertex 132.028 17.8465 6
    endloop
  endfacet
  facet normal 0.634401 -0.772979 0.00621968
    outer loop
      vertex 131.856 17.7183 3
      vertex 131.898 17.7766 6
      vertex 131.783 17.6826 6
    endloop
  endfacet
  facet normal 0.634358 -0.773015 0.00622098
    outer loop
      vertex 131.898 17.7766 6
      vertex 131.856 17.7183 3
      vertex 131.908 17.761 3
    endloop
  endfacet
  facet normal -0.471452 -0.88187 0.0062215
    outer loop
      vertex 132.908 17.8595 3
      vertex 132.972 17.8465 6
      vertex 132.915 17.8768 6
    endloop
  endfacet
  facet normal -0.471386 -0.881905 0.00621995
    outer loop
      vertex 132.972 17.8465 6
      vertex 132.908 17.8595 3
      vertex 133.033 17.7928 3
    endloop
  endfacet
  facet normal -0.0980043 -0.995167 0.00621954
    outer loop
      vertex 132.5 17.9406 3
      vertex 132.564 17.9531 6
      vertex 132.5 17.9594 6
    endloop
  endfacet
  facet normal -0.0980177 -0.995165 0.00621982
    outer loop
      vertex 132.564 17.9531 6
      vertex 132.5 17.9406 3
      vertex 132.641 17.9268 3
    endloop
  endfacet
  facet normal -0.88189 -0.471413 0.00622096
    outer loop
      vertex 133.418 17.4076 3
      vertex 133.402 17.4774 6
      vertex 133.386 17.467 3
    endloop
  endfacet
  facet normal -0.881902 -0.471391 0.00622037
    outer loop
      vertex 133.402 17.4774 6
      vertex 133.418 17.4076 3
      vertex 133.472 17.3467 6
    endloop
  endfacet
  facet normal -0.881884 0.471425 0.00622127
    outer loop
      vertex 133.402 16.2726 6
      vertex 133.418 16.3424 3
      vertex 133.386 16.283 3
    endloop
  endfacet
  facet normal -0.881905 0.471386 0.00622023
    outer loop
      vertex 133.418 16.3424 3
      vertex 133.402 16.2726 6
      vertex 133.472 16.4033 6
    endloop
  endfacet
  facet normal -0.773073 0.634287 0.00622121
    outer loop
      vertex 133.343 16.2309 3
      vertex 133.402 16.2726 6
      vertex 133.386 16.283 3
    endloop
  endfacet
  facet normal -0.772976 0.634405 0.00621768
    outer loop
      vertex 133.402 16.2726 6
      vertex 133.343 16.2309 3
      vertex 133.308 16.158 6
    endloop
  endfacet
  facet normal -0.471386 0.881905 0.00621967
    outer loop
      vertex 132.908 15.8905 3
      vertex 132.972 15.9035 6
      vertex 133.033 15.9572 3
    endloop
  endfacet
  facet normal -0.471463 0.881864 0.00622149
    outer loop
      vertex 132.972 15.9035 6
      vertex 132.908 15.8905 3
      vertex 132.915 15.8732 6
    endloop
  endfacet
  facet normal 0.772966 0.634417 0.00621807
    outer loop
      vertex 131.692 16.158 6
      vertex 131.746 16.1215 3
      vertex 131.657 16.2309 3
    endloop
  endfacet
  facet normal 0.773029 0.634341 0.00622012
    outer loop
      vertex 131.746 16.1215 3
      vertex 131.692 16.158 6
      vertex 131.733 16.1082 6
    endloop
  endfacet
  facet normal 0.290308 0.956913 0.00622016
    outer loop
      vertex 132.092 15.8905 3
      vertex 132.147 15.8545 6
      vertex 132.228 15.8494 3
    endloop
  endfacet
  facet normal 0.290276 0.956923 0.00622084
    outer loop
      vertex 132.147 15.8545 6
      vertex 132.092 15.8905 3
      vertex 132.085 15.8732 6
    endloop
  endfacet
  facet normal 0.88189 -0.471413 0.00622096
    outer loop
      vertex 131.598 17.4774 6
      vertex 131.582 17.4076 3
      vertex 131.614 17.467 3
    endloop
  endfacet
  facet normal 0.881902 -0.471391 0.00622037
    outer loop
      vertex 131.582 17.4076 3
      vertex 131.598 17.4774 6
      vertex 131.528 17.3467 6
    endloop
  endfacet
  facet normal 0.772976 -0.634405 0.00621768
    outer loop
      vertex 131.598 17.4774 6
      vertex 131.657 17.5191 3
      vertex 131.692 17.592 6
    endloop
  endfacet
  facet normal 0.773061 -0.634301 0.0062208
    outer loop
      vertex 131.657 17.5191 3
      vertex 131.598 17.4774 6
      vertex 131.614 17.467 3
    endloop
  endfacet
  facet normal 0.471386 -0.881905 0.00621995
    outer loop
      vertex 132.092 17.8595 3
      vertex 132.028 17.8465 6
      vertex 131.967 17.7928 3
    endloop
  endfacet
  facet normal 0.471452 -0.88187 0.0062215
    outer loop
      vertex 132.028 17.8465 6
      vertex 132.092 17.8595 3
      vertex 132.085 17.8768 6
    endloop
  endfacet
  facet normal -0.47137 -0.881914 0.00622045
    outer loop
      vertex 133.033 17.7928 3
      vertex 133.102 17.7766 6
      vertex 132.972 17.8465 6
    endloop
  endfacet
  facet normal -0.47138 -0.881909 0.00622071
    outer loop
      vertex 133.102 17.7766 6
      vertex 133.033 17.7928 3
      vertex 133.092 17.761 3
    endloop
  endfacet
  facet normal -0.634358 -0.773015 0.00622098
    outer loop
      vertex 133.144 17.7183 3
      vertex 133.102 17.7766 6
      vertex 133.092 17.761 3
    endloop
  endfacet
  facet normal -0.634401 -0.772979 0.00621968
    outer loop
      vertex 133.102 17.7766 6
      vertex 133.144 17.7183 3
      vertex 133.217 17.6826 6
    endloop
  endfacet
  facet normal -0.881894 -0.471407 0.00621989
    outer loop
      vertex 133.485 17.2828 3
      vertex 133.472 17.3467 6
      vertex 133.418 17.4076 3
    endloop
  endfacet
  facet normal -0.881922 -0.471355 0.00621865
    outer loop
      vertex 133.472 17.3467 6
      vertex 133.485 17.2828 3
      vertex 133.502 17.29 6
    endloop
  endfacet
  facet normal -0.956902 -0.290344 0.00621856
    outer loop
      vertex 133.485 17.2828 3
      vertex 133.521 17.2284 6
      vertex 133.502 17.29 6
    endloop
  endfacet
  facet normal -0.956927 -0.290263 0.00622033
    outer loop
      vertex 133.521 17.2284 6
      vertex 133.485 17.2828 3
      vertex 133.526 17.1474 3
    endloop
  endfacet
  facet normal 0.881922 0.471355 0.00621865
    outer loop
      vertex 131.528 16.4033 6
      vertex 131.515 16.4672 3
      vertex 131.498 16.46 6
    endloop
  endfacet
  facet normal 0.881897 0.471402 0.00621976
    outer loop
      vertex 131.515 16.4672 3
      vertex 131.528 16.4033 6
      vertex 131.582 16.3424 3
    endloop
  endfacet
endsolid OpenSCAD_Model
